<?xml version="1.0" standalone="no"?>
<!DOCTYPE svg PUBLIC "-//W3C//DTD SVG 20010904//EN"
 "http://www.w3.org/TR/2001/REC-SVG-20010904/DTD/svg10.dtd">
<svg version="1.0" xmlns="http://www.w3.org/2000/svg"
 width="700.000000pt" height="700.000000pt" viewBox="0 0 700.000000 700.000000"
 preserveAspectRatio="xMidYMid meet">
<metadata>
Created by potrace 1.11, written by Peter Selinger 2001-2013
</metadata>
<g transform="translate(0.000000,700.000000) scale(0.100000,-0.100000)"
fill="#000000" stroke="none">
<path d="M3235 6994 c-502 -49 -882 -154 -1295 -360 -913 -454 -1587 -1290
-1834 -2274 -35 -138 -62 -283 -88 -470 -8 -60 -13 -202 -13 -390 0 -297 5
-354 46 -602 238 -1432 1399 -2595 2839 -2847 236 -41 300 -46 610 -46 309 0
373 5 610 46 1436 249 2586 1397 2839 2836 41 231 46 294 46 613 0 319 -5 382
-46 613 -222 1264 -1142 2322 -2362 2716 -216 70 -405 113 -642 147 -105 14
-612 28 -710 18z m645 -289 c1002 -123 1869 -685 2389 -1550 243 -404 392
-856 442 -1340 14 -142 14 -489 0 -630 -92 -880 -519 -1662 -1211 -2215 -241
-193 -576 -382 -877 -494 -718 -267 -1550 -265 -2258 4 -711 270 -1303 777
-1677 1435 -213 375 -346 795 -400 1260 -18 158 -15 540 6 700 80 625 305
1163 687 1645 103 130 362 390 489 492 521 414 1121 652 1785 708 146 12 470
4 625 -15z"/>
<path d="M3285 6554 c-108 -17 -242 -54 -339 -94 -83 -35 -238 -133 -280 -178
l-29 -31 423 -1278 c232 -703 426 -1282 431 -1287 5 -5 12 -7 15 -3 5 5 853
2563 854 2574 0 8 -146 117 -195 146 -236 138 -582 197 -880 151z"/>
<path d="M2051 6049 c-112 -13 -215 -45 -336 -104 -418 -202 -743 -642 -767
-1038 l-4 -69 1209 -605 c665 -332 1212 -601 1216 -598 3 4 -267 550 -601
1213 -456 907 -611 1207 -625 1208 -10 1 -51 -2 -92 -7z"/>
<path d="M4826 6038 c-38 -61 -1200 -2398 -1194 -2403 4 -4 548 265 1210 597
l1203 604 3 39 c13 151 -84 417 -222 609 -217 302 -572 534 -860 561 -33 3
-75 8 -93 11 -26 4 -35 0 -47 -18z"/>
<path d="M708 4323 c-180 -189 -290 -542 -275 -882 14 -312 109 -570 284 -768
l28 -33 1284 425 c707 234 1287 428 1290 430 2 3 0 9 -5 14 -9 9 -2544 851
-2561 851 -5 0 -25 -17 -45 -37z"/>
<path d="M4961 3936 c-701 -232 -1276 -427 -1278 -433 -3 -7 486 -174 1282
-438 l1287 -426 34 38 c321 359 374 1031 118 1485 -43 77 -140 198 -157 197
-7 -1 -585 -191 -1286 -423z"/>
<path d="M2157 2776 c-659 -332 -1202 -607 -1207 -612 -13 -13 6 -175 29 -256
129 -450 553 -849 1002 -943 39 -8 96 -15 127 -15 l57 0 603 1203 c331 661
602 1208 602 1215 0 6 -3 12 -7 12 -5 -1 -547 -272 -1206 -604z"/>
<path d="M3620 3369 c0 -6 273 -554 607 -1216 l608 -1206 85 6 c120 8 226 39
366 107 412 201 735 634 761 1021 l6 86 -1208 607 c-665 333 -1212 606 -1217
606 -4 0 -8 -5 -8 -11z"/>
<path d="M3064 2033 l-426 -1288 38 -33 c149 -130 380 -230 606 -263 105 -15
341 -15 433 0 248 41 492 148 604 266 l38 40 -426 1283 c-234 705 -429 1282
-433 1282 -4 0 -199 -579 -434 -1287z"/>
</g>
</svg>
