<svg id="レイヤー_1" data-name="レイヤー 1" xmlns="http://www.w3.org/2000/svg" viewBox="0 0 1503 770.21"><defs><style>.cls-1{font-size:187.87px;font-family:YuGo-Bold-83pv-RKSJ-H, YuGothic;font-weight:700;}.cls-1,.cls-2{fill:#fff;}</style></defs><title>ostraca_top</title><text class="cls-1" transform="translate(0 705.39)">学生管理システム</text><g id="レイヤー_2" data-name="レイヤー 2"><g id="レイヤー_1-2" data-name="レイヤー 1-2"><path class="cls-2" d="M11.34,287.41c0-30.9.93-51.43,2.59-61.8a74.65,74.65,0,0,1,8.7-25.53,88.84,88.84,0,0,1,30-32.56,85.81,85.81,0,0,1,50.51-14.62,87.94,87.94,0,0,1,80.11,47.55,61.27,61.27,0,0,1,8.88,25.16,491.6,491.6,0,0,1,2.22,61.8,568,568,0,0,1-2.22,61.43,62.87,62.87,0,0,1-8.88,25.53A86.34,86.34,0,0,1,154,406.75a88.42,88.42,0,0,1-51.06,15.17,92.12,92.12,0,0,1-80.48-47.55c-1.85-4.07-3.52-7.77-5-11.47a72.91,72.91,0,0,1-3.52-14.25C12.08,338.11,11.34,317.76,11.34,287.41Zm38.85,0c0,26.09.93,43.66,2.78,52.91a44,44,0,0,0,10,22.39A45.76,45.76,0,0,0,79.24,376a46.16,46.16,0,0,0,23.68,6.11A45.27,45.27,0,0,0,127,376a44.92,44.92,0,0,0,15.54-13.32,48.24,48.24,0,0,0,10.55-22.39c1.67-9.25,2.59-26.83,2.59-52.91a342.75,342.75,0,0,0-2.59-53.28,46.67,46.67,0,0,0-10.36-22,46,46,0,0,0-15.54-13.69,54.55,54.55,0,0,0-24.05-5.55,53,53,0,0,0-23.68,5.55,50.32,50.32,0,0,0-16.28,13.69,44.42,44.42,0,0,0-10,22C51.12,243.56,50.2,261.33,50.2,287.41Z"/><path class="cls-2" d="M250,355.68a110.88,110.88,0,0,0,72.9,26.46c33.3-.56,50.14-12.77,50.69-36.82q.28-29.7-33.3-35.52-15.54-2.22-33.86-5c-22-3.7-38.85-12.21-50.32-25.16a71.31,71.31,0,0,1-17.76-49c0-23.13,7.4-41.81,22.39-56.06,14.06-14.25,34.41-21.46,60.87-21.65a141.17,141.17,0,0,1,83.07,27.57L383,213.41a114.91,114.91,0,0,0-63.46-20.35,48.4,48.4,0,0,0-30,9.25c-8.33,6.48-12.58,15.91-12.77,28.49a29.28,29.28,0,0,0,8.7,20.72c5.74,6.29,15,10.73,27.57,13.14,7,1.3,16.65,2.59,28.86,4.26q36.08,5,53.28,26.64a76,76,0,0,1,17,49.4c-1.3,50.69-31.27,76.23-89.92,77a143.22,143.22,0,0,1-97.87-36.08Z"/><path class="cls-2" d="M503.49,190.65H433.18V155.31H612.65v35.34H542.34V419.7H503.49Z"/><path class="cls-2" d="M645.95,155.13H746c21.46,0,38.85,5.74,52.36,17.39,16.28,13.14,24.61,32,25.35,56.43q-.56,53.84-49.4,73.45l59,117.3H787.49l-53.1-113H684.62v113H645.76V155.13Zm38.67,115.82h59c14.62-.19,25.53-4.63,32.75-13.14a41.09,41.09,0,0,0,10.73-29c-.37-13.88-4.63-23.68-13-29.79-6.66-5.37-16.1-8.14-28.49-8.14H684.62Z"/><path id="_複合パス_" data-name=" 複合パス " class="cls-2" d="M1004,360.49H906.82l-19.61,59H846.14L939,155.13h32.56l93.25,264.57h-41.07Zm-11.1-35.34-37-115.82h-.74l-37,115.82Z"/><path class="cls-2" d="M1265.38,345.69c-5.55,24.61-16.28,43.29-32.19,56.43a88.93,88.93,0,0,1-57.91,19.61,92.31,92.31,0,0,1-80.3-47.55c-1.85-4.07-3.52-7.77-5.18-11.47a72.91,72.91,0,0,1-3.52-14.25c-1.67-10.73-2.59-31.08-2.59-61.43,0-30.71.93-51.25,2.59-61.8a71.46,71.46,0,0,1,8.7-25.16,90.85,90.85,0,0,1,30-32.75,84.68,84.68,0,0,1,50.51-14.8c24.79.19,45,7.77,60.5,22.57a101.4,101.4,0,0,1,29.6,55.69h-41.26a58.65,58.65,0,0,0-17.21-27.2,50.32,50.32,0,0,0-31.64-11.1,53,53,0,0,0-23.68,5.55,50.32,50.32,0,0,0-16.28,13.69,44.42,44.42,0,0,0-10,22q-2.78,14.15-2.78,53.28c0,26.09.93,43.66,2.78,52.91a44,44,0,0,0,10,22.39,52.9,52.9,0,0,0,40,19.43c21.83,0,38.11-12,49-36.26Z"/><path class="cls-2" d="M1430.6,360.49h-97.13l-19.61,59h-41.07l93.06-264.39h32.56l93.25,264.57h-41.07Zm-11.1-35.34-37-115.82h-.74l-37,115.64Z"/><path id="_複合パス_2" data-name=" 複合パス 2" class="cls-2" d="M1004,360.49H906.82l-19.61,59H846.14L939,155.13h32.56l93.25,264.57h-41.07Zm-11.1-35.34-37-115.82h-.74l-37,115.82Z"/></g></g><path class="cls-2" d="M119.49,18.62l2,.12,3.37-2.22-12.34,0V14.47l14.32,0,.35-.39,2,2.08c.23.35,0,.52-.58.52a46.37,46.37,0,0,1-6.74,4.06V22l12.11,0v2.48l-12.11,0,0,6.65c0,1.39-.62,2.08-1.86,2.09h-3.14l-.47-2.87H119c.31,0,.46-.17.46-.52V24.48l-12.11,0V22l12.11,0Zm7.9-9.4,5.71,0,0,7.16h-2.33V11.69l-20.49.05v5.08H108l0-7.56,16.88,0,2.43-5.74,2.45,1.3c.31.43.2.7-.35.78Zm-14-.09a17,17,0,0,0-2.1-3.64l2.21-1.44a19.41,19.41,0,0,1,2.34,3.64Zm6.86-5.49a19.2,19.2,0,0,1,2.34,4l-2.44,1.44a20.42,20.42,0,0,0-2.1-4Z"/><path class="cls-2" d="M143.52,33.4h-2.33l0-14.2A27.19,27.19,0,0,1,138,25.34L136.4,23A25.74,25.74,0,0,0,141,12.31H137V9.85h4.19V3.45h2.21q.93.13.12.78v5.6h3V12.3h-3v4.56a20.79,20.79,0,0,1,4.08,4l-1.63,2.48A35.29,35.29,0,0,0,143.5,20Zm3.26.12-1.05-2.86a20.61,20.61,0,0,0,7.56-5,46,46,0,0,1-3-5.2l1.86-1.44a33.86,33.86,0,0,0,2.57,4.42,25.71,25.71,0,0,0,2.2-5.48l2.45,1.43q.7.39-.46.78a26,26,0,0,1-2.55,5.22,28.79,28.79,0,0,0,7.34,4.41l-1.39,2.87q-5.36-2.72-7.34-5.06Q152.83,30.39,146.78,33.53Zm6.83-18.64c.62.52.47.74-.46.65A28,28,0,0,1,148,19.85l-1.52-2.47a16.83,16.83,0,0,0,5.35-4.44Zm-5.48-3.5V8.91h5.59V3.42h2.21q.93.13.12.78V8.89l6.64,0v2.48Zm9.55,1.28a29.59,29.59,0,0,1,5.48,4.16l-1.62,2.35A32,32,0,0,0,156.41,15Z"/><path class="cls-2" d="M114.22,61.57q-2.32,6-4.05,9.78c.08.69-.11.87-.58.52l-2.33-1.95a51.28,51.28,0,0,0,4.87-9.65Zm-2.45-3.77a32.56,32.56,0,0,0-4.08-4l1.63-2.22a17.72,17.72,0,0,1,4.2,3.9ZM113,50.63A47.45,47.45,0,0,0,109,47l1.62-2.22a23.58,23.58,0,0,1,4.2,3.64Zm15.29,15.71-2.69-3.77,2-1.7a45.56,45.56,0,0,1,6.07,9.23l-2.44,1.83a26.22,26.22,0,0,0-1.64-3.12l-14.2,1.6c-.07.7-.27.87-.58.52l-.94-3.51,3.61-.14a70,70,0,0,0,3.82-9l-6.64,0V55.84l7.68,0V50.47l-5.71,0V48l5.71,0V42.79h2.56c.78.17.82.52.12,1V48l6.29,0v2.48l-6.29,0v5.34l8.5,0v2.48l-9.08,0a76.56,76.56,0,0,1-4.29,8.87Z"/><path class="cls-2" d="M148.78,43.5h2.56q1.17.26.12,1v5.34q.84,12.51,11.91,17.81L162,71q-8-3.88-11.44-14.17a20.9,20.9,0,0,1-11,14.23l-1.75-2.86q11-4.85,11-17.87Z"/><polygon class="cls-2" points="192.32 4.7 177.84 72.64 192.58 72.6 205.79 10.56 247.83 10.44 247.82 4.54 233.05 4.58 233.05 0.15 214.73 0.21 214.74 4.63 192.32 4.7"/><path class="cls-2" d="M355,4.25c5,0,9.12,4.54,9.14,10.17l.1,47.52c0,5.64-4.05,10.22-9.1,10.23l-44.18.11,0-6.09,36.69-.09-.12-55.73-36.7.1,0-6.09Z"/><polygon class="cls-2" points="402.62 6.11 368.01 6.19 368.04 20.13 402.65 20.04 402.62 6.11"/><path class="cls-2" d="M419.51,22.68l0,18.82c0,3.24-2.33,5.87-5.22,5.87L366,47.5l.05,24.67,48.3-.12c5,0,9.1-4.6,9.1-10.22l-.09-39.16Z"/><path class="cls-2" d="M477.88,28.36V23.53c4.6,0,8.33-4.19,8.32-9.35s-3.76-9.33-8.36-9.31-8.34,4.2-8.34,9.36a9.59,9.59,0,0,0,4.08,7.95l-30.76.09,0-18.29L425.24,4l.12,58.16c0,5.41,3.94,9.8,8.79,9.78l46-.12,0-8.26-32,.08c-2.89,0-5.23-2.59-5.25-5.83,0,0,0,0,0,0l-.07-29.4,35.07-.09m0-18.31a4,4,0,0,1,3.72,4.14,3.74,3.74,0,1,1-7.43,0,4,4,0,0,1,3.71-4.16"/><path class="cls-2" d="M523.75,26.72c3.36,0,6.37,3.92,6.65,7.71l.08,31.25,9.1,0,0,6.06-53.31.13,0-6L514,65.73l0-21.8a2.88,2.88,0,0,0-2-2.85l-18.27.06,0-14.34Z"/><path class="cls-2" d="M578.28,28.44l0,14.46-46,.12,0-7.24c0-4,2.83-7.23,6.39-7.25Z"/><path class="cls-2" d="M672.52,70.75l29.23-.08a5.78,5.78,0,0,0,5.44-5.78h0l0-10.59,11.27,0,0-6.2-11.27,0V44l5.76,0,0-22.59c0-4.56-3.32-8.26-7.4-8.25l-14.91.05V10.9l25.36-.07V4.89L690.58,5l0-4.13-16,0V5l-22.12.05,0,5.94,22.11-.06v2.33l-20.79.06.07,30.85,39-.11,0,4.08-48.08.12,0,6.2,48.07-.12,0,10.49-11,0-4.34-8.41-14.16,0L669.88,69a2.62,2.62,0,0,0,2.64,1.74m2.15-32.61h-6l0-8.31,6,0,0,8.33m0-14.4-6,0,0-4.32,6,0,0,4.32m23.54,14.33-7.52,0,0-8.33,7.52,0,0,8.33m0-14.39-7.53,0V19.37l7.53,0Z"/><path class="cls-2" d="M903.61,45.54l9.2-14.24,10.19,0-9.35-15.52,5.18,0,0-6.9-15.44,0,0-8.41L890.29.5v8.4l-12.77,0v6.9l4.93,0-9.55,10.84L870,23.88l0-8.82h5.54l0-6.12L870,9l0-8.67L857.2.33l0,8.65-7.53,0,0,6.1,7.54,0-12.85,47.6,13,0,0,8.2,12.77,0-.07-27.88,5.4,5.18,0-16.74h1l11.77,14.23L871.83,70.82l15.38,0L896.78,56l12,14.69,15.48,0Zm-8.56-8.27-7.36-8.94,9.08-12.54,2.27,0,6.87,14-6,0Z"/><path class="cls-2" d="M289.44,51.45h4.7l0,14.8h-3.46v6.1l12.84-.05c2.89,0,5.23-2.63,5.22-5.85l0-17.95a2.77,2.77,0,0,0-2.61-2.89l-32.36.09V41l35-.09,0-5.8-35,.09V30.89l35-.09-.05-19.26c0-4-2.87-7.16-6.4-7.14l-10.1,0V0L277.5,0V4.46l-16.61,0,.09,47h3.86l0,14.79-5.78,0,0-18.58h-7.7c-2.88,0-4.33,2.64-4.32,5.88l0,13c0,3.23,1.46,5.85,4.36,5.84l33.72-.08c2.89,0,4.34-2.63,4.32-5.88l0-15M273.71,10.12l22.15-.07v3.6l-22.15.07v-3.6m0,9.41,22.15-.07v3.25l-22.16,0V19.53m4,32,0,14.8h-4l0-14.8h4Z"/><path class="cls-2" d="M649.77,6.81A10.68,10.68,0,0,0,640,0L602.93.1l-23,36.77c-1.58,2.14,1,8.42,6.67,8.4l19.58-.06L590.33,70.09c0,.83,1,1.55,2.49,1.84l21.29-.05,16.81-26.71h.51l13,0,0-8.35-8.19,0,13.95-22.16.1-.15a14,14,0,0,0-.47-7.65m-38.26,30-10.08,0,16.73-26.8,10.45,0Z"/><polygon class="cls-2" points="837.34 11.16 840.25 0.96 827.45 0.99 824.53 11.2 823.78 11.2 823.75 1 810.94 1.04 810.96 11.23 809.34 11.24 805.57 1.06 792.77 1.09 796.52 11.27 783.28 11.3 783.31 25.57 796.11 25.54 796.09 17.34 833.29 17.23 833.31 25.43 846.12 25.4 846.09 11.14 837.34 11.16"/><path class="cls-2" d="M825.56,42.29l10.37-7.51a6.81,6.81,0,0,0,2.63-2.57h0a2.82,2.82,0,0,0,.25-1.13,3,3,0,0,0-1-2.18,4.72,4.72,0,0,0-3.14-1.2l-47.55.12V34l26.55-.08-6.22,6.22,0,8.37-25,.07v5.94l25-.08,0,4.53-10.85,0L800,71l20.77,0a5.15,5.15,0,0,0,4.83-5.43l0-11.1,20.26-.05V48.44l-20.26.05Z"/><path class="cls-2" d="M203,72.57c-3.77,0-5.63-4.24-4.93-8.3l.5-1.17,18.71-43.73,14.41,0-6.67,16,11.82,0,8.36,29.27c.82,2.59,1.4,7.9-2.52,7.9L203,72.57M213.93,62.1,231.07,62l-7.56-23.11Z"/><path class="cls-2" d="M720.51,71.11l12.69,0-.06-31.36,16.69-.05L749.75,4.8l-29.38.08Zm12.5-60h6.19l0,7.12-6.19,0,0-7.13m0,12.6,6.19,0,0,10.54-6.19,0Z"/><path class="cls-2" d="M772.83,4.74l-21,.05h0l.07,34.86,14.54,0,0,13.6,0-.06a4.07,4.07,0,0,1-3.83,4.3l-10.59,0L753.9,71,773,71a6.53,6.53,0,0,0,6.46-6.84l-.11-52.19c0-4-2.92-7.21-6.49-7.2m-6.42,29.38-6.19,0,0-10.55h6.19l0,10.54m0-16-6.19,0,0-7.13,6.19,0Z"/><polygon class="cls-2" points="22.9 73.36 22.78 2.38 82.81 37.93 22.9 73.36"/><rect class="cls-2" x="0.11" y="472.34" width="1490.97" height="15.38"/></svg>