<?xml version="1.0" encoding="utf-8"?>
<!-- Generator: Adobe Illustrator 11.0, SVG Export Plug-In  -->
<!DOCTYPE svg PUBLIC "-//W3C//DTD SVG 1.0//EN"    "http://www.w3.org/TR/2001/REC-SVG-20010904/DTD/svg10.dtd" [
	<!ENTITY ns_flows "http://ns.adobe.com/Flows/1.0/">
	<!ENTITY ns_svg "http://www.w3.org/2000/svg">
	<!ENTITY ns_xlink "http://www.w3.org/1999/xlink">
]>
<svg  xmlns="&ns_svg;" xmlns:xlink="&ns_xlink;" xmlns:a="http://ns.adobe.com/AdobeSVGViewerExtensions/3.0/"
	 width="528" height="48" viewBox="-0.109 -0.584 528 48" xml:space="preserve">
	<defs>
	</defs>
	<g>
		<path d="M7.897,12.023l1.278,0.079l2.177-1.435l-7.968,0.021L3.383,9.343l9.245-0.023l0.224-0.254l1.281,1.343
			c0.151,0.223,0.026,0.336-0.375,0.336c-1.5,1.071-2.953,1.943-4.354,2.619l0.003,0.84l7.817-0.021l0.003,1.6l-7.818,0.02
			l0.011,4.291c0,0.896-0.398,1.346-1.2,1.349l-2.03,0.004l-0.304-1.851l1.729-0.004c0.2,0,0.3-0.111,0.299-0.336l-0.008-3.448
			l-7.816,0.02l-0.004-1.598l7.817-0.021L7.897,12.023z M12.996,5.953l3.684-0.01l0.01,4.625l-1.503,0.004L15.18,7.547L1.951,7.581
			l0.006,3.28l-1.504,0.003l-0.01-4.878l10.899-0.029l1.571-3.704l1.58,0.837c0.202,0.28,0.126,0.449-0.224,0.505L12.996,5.953z
			 M3.977,5.894C3.522,4.886,3.071,4.103,2.618,3.543l1.426-0.928C4.598,3.284,5.1,4.068,5.553,4.964L3.977,5.894z M8.403,2.35
			c0.755,1.063,1.257,1.931,1.509,2.603l-1.576,0.93C7.933,4.875,7.481,4.005,6.979,3.279L8.403,2.35z"/>
		<path d="M23.417,21.567l-1.504,0.006l-0.019-9.167c-0.448,1.291-1.122,2.609-2.021,3.957l-1.055-1.511
			c1.599-2.246,2.596-4.547,2.991-6.902l-2.631,0.006l-0.002-1.599l2.706-0.006l-0.009-4.121l1.429-0.003
			c0.4,0.055,0.426,0.223,0.076,0.503l0.008,3.616l1.954-0.005l0.003,1.599l-1.954,0.005l0.006,2.943
			c1.205,0.951,2.083,1.818,2.637,2.601l-1.05,1.6c-0.502-0.783-1.03-1.511-1.583-2.183L23.417,21.567z M25.521,21.647l-0.68-1.848
			c2.154-0.903,3.78-1.972,4.879-3.208c-0.654-0.953-1.308-2.071-1.962-3.36l1.202-0.927c0.654,1.29,1.207,2.238,1.658,2.855
			c0.301-0.394,0.774-1.571,1.422-3.536l1.58,0.921c0.301,0.168,0.202,0.336-0.299,0.504c-0.448,1.236-0.997,2.357-1.646,3.368
			c1.054,0.951,2.635,1.898,4.741,2.847l-0.899,1.852c-2.308-1.172-3.887-2.26-4.742-3.268
			C29.875,19.029,28.125,20.295,25.521,21.647z M29.931,9.61c0.402,0.335,0.301,0.475-0.299,0.422
			c-0.801,0.898-1.901,1.826-3.301,2.781L25.35,11.22c1.301-0.676,2.452-1.632,3.451-2.869L29.931,9.61z M26.393,7.349L26.39,5.75
			l3.608-0.008L29.991,2.21l1.429-0.003c0.4,0.055,0.426,0.223,0.076,0.504l0.006,3.027l4.285-0.011l0.002,1.599L26.393,7.349z
			 M32.559,8.173c1.605,1.005,2.785,1.899,3.538,2.683l-1.048,1.516c-0.805-0.838-1.909-1.733-3.314-2.682L32.559,8.173z"/>
		<path d="M4.499,39.75c-0.997,2.58-1.871,4.686-2.618,6.314c0.051,0.448-0.074,0.561-0.375,0.336L0,45.144
			c0.949-1.348,1.997-3.425,3.143-6.231L4.499,39.75z M2.914,37.315c-0.753-0.896-1.631-1.76-2.636-2.599l1.05-1.434
			c1.253,0.896,2.159,1.731,2.711,2.516L2.914,37.315z M3.732,32.69c-0.904-0.896-1.783-1.68-2.636-2.349l1.048-1.434
			c1.055,0.727,1.958,1.51,2.711,2.349L3.732,32.69z M13.601,42.836l-1.734-2.433l1.275-1.098c1.708,2.073,3.016,4.058,3.922,5.962
			l-1.576,1.182c-0.354-0.784-0.706-1.456-1.058-2.017l-9.168,1.034c-0.048,0.45-0.174,0.563-0.375,0.336l-0.606-2.267l2.33-0.09
			c0.949-1.855,1.77-3.792,2.468-5.809l-4.284,0.01L4.791,36.05l4.961-0.013l-0.006-3.449L6.062,32.6L6.059,31l3.684-0.01
			l-0.008-3.363l1.653-0.004c0.501,0.112,0.528,0.336,0.077,0.672l0.006,2.689l4.06-0.01l0.003,1.6l-4.06,0.01l0.006,3.447
			l5.487-0.016l0.004,1.6l-5.863,0.016c-0.798,1.963-1.722,3.873-2.769,5.724L13.601,42.836z"/>
		<path d="M26.813,28.087l1.653-0.006c0.502,0.112,0.528,0.336,0.077,0.675l0.008,3.447c0.362,5.383,2.925,9.215,7.691,11.5
			l-0.897,2.105c-3.461-1.671-5.923-4.724-7.386-9.147c-1.044,4.209-3.417,7.271-7.121,9.186L19.706,44
			c4.756-2.086,7.128-5.934,7.116-11.538L26.813,28.087z"/>
		<polygon points="54.921,3.032 45.571,46.901 55.087,46.875 63.617,6.815 90.762,6.737 90.752,2.932 81.22,2.957 81.215,0.1 
			69.389,0.135 69.399,2.986 "/>
		<path d="M159.931,2.746c3.248-0.01,5.889,2.932,5.898,6.564l0.066,30.68c0.004,3.639-2.617,6.596-5.873,6.605l-28.524,0.074
			l-0.01-3.934l23.688-0.061L155.101,6.69l-23.693,0.065l-0.01-3.934L159.931,2.746z"/>
		<polygon points="190.696,3.944 168.351,3.996 168.371,12.997 190.716,12.939 "/>
		<path d="M201.601,14.643l0.025,12.152c0.01,2.09-1.503,3.789-3.373,3.789l-31.186,0.086l0.035,15.93l31.186-0.08
			c3.246-0.014,5.877-2.967,5.873-6.6l-0.055-25.283L201.601,14.643z"/>
		<path d="M239.291,18.309l-0.006-3.115c2.972-0.005,5.377-2.706,5.373-6.039c-0.005-3.327-2.425-6.021-5.398-6.014
			c-2.977,0.01-5.387,2.711-5.387,6.044c0.01,2.183,1.068,4.074,2.631,5.131l-19.859,0.055l-0.025-11.807l-11.32,0.028l0.08,37.548
			c0.006,3.492,2.547,6.33,5.674,6.314l29.695-0.08l-0.01-5.332l-20.631,0.051c-1.864,0.014-3.377-1.674-3.387-3.764
			c0,0-0.021,0.01-0.025,0.02l-0.045-18.979L239.291,18.309 M239.265,6.489c1.322-0.01,2.395,1.198,2.4,2.676
			c0.004,1.478-1.068,2.681-2.385,2.686c-1.333,0.005-2.406-1.193-2.412-2.676C236.865,7.697,237.937,6.489,239.265,6.489"/>
		<path d="M268.906,17.253c2.17-0.004,4.115,2.534,4.295,4.979l0.051,20.178l5.877-0.014l0.01,3.914l-34.416,0.084l-0.01-3.904
			l17.879-0.055l-0.029-14.076c-0.006-0.902-0.566-1.648-1.318-1.84l-11.797,0.041l-0.02-9.257L268.906,17.253z"/>
		<path d="M304.111,18.36l0.014,9.333l-29.686,0.08l-0.01-4.672c-0.006-2.582,1.824-4.668,4.123-4.678L304.111,18.36z"/>
		<path d="M364.951,45.678l18.873-0.049c1.885-0.012,3.408-1.654,3.514-3.729h0.023l-0.01-6.836l7.277-0.02l-0.016-4.004
			l-7.275,0.014v-2.631l3.717-0.01l-0.029-14.583c0-2.947-2.141-5.33-4.775-5.325l-9.627,0.033l-0.006-1.503L392.99,6.99
			l-0.006-3.831l-16.371,0.043l-0.01-2.666l-10.314,0.025l0.006,2.671l-14.281,0.035l0.014,3.833l14.273-0.04v1.503l-13.422,0.038
			l0.047,19.918l25.15-0.07l0.01,2.637l-31.039,0.08l0.01,4.004l31.035-0.08l0.014,6.77l-7.086,0.016l-2.805-5.428l-9.141,0.025
			l4.174,8.082C363.683,45.393,364.134,45.678,364.951,45.678 M366.339,24.622l-3.893,0.004l-0.012-5.367l3.895-0.015
			L366.339,24.622 M366.32,15.325l-3.889,0.011l-0.01-2.788l3.889-0.01L366.32,15.325 M381.519,24.577l-4.855,0.016l-0.016-5.375
			l4.855-0.017L381.519,24.577 M381.498,15.284l-4.859,0.015l-0.006-2.792l4.861-0.01L381.498,15.284z"/>
		<path d="M514.156,29.403l5.938-9.197l6.58-0.022l-6.039-10.021l3.344-0.01l-0.01-4.455L514,5.723l-0.01-5.43l-8.438,0.027
			l0.004,5.422l-8.244,0.025l0.006,4.458l3.182-0.01l-6.164,6.998l-1.869-1.794l-0.014-5.697l3.578-0.005l-0.012-3.949l-3.572,0.016
			l-0.01-5.596l-8.248,0.028l0.01,5.587l-4.861,0.013l0.01,3.941l4.867-0.01l-8.299,30.73l8.363-0.016l0.016,5.293l8.242-0.025
			l-0.045-18l3.488,3.342l-0.02-10.808h0.656l7.596,9.185l-10.578,16.275l9.932-0.02l6.18-9.521l7.758,9.482l9.992-0.031
			L514.156,29.403z M508.628,24.061l-4.75-5.775l5.863-8.094l1.463-0.01l4.434,9.028l-3.873,0.01L508.628,24.061z"/>
		<path d="M117.627,33.215l3.036-0.004l0.021,9.555l-2.235,0.006l0.006,3.939l8.293-0.035c1.869,0,3.378-1.699,3.367-3.779
			l-0.02-11.586c-0.005-1.031-0.752-1.869-1.684-1.869l-20.892,0.061l-0.006-3.037l22.571-0.055l-0.011-3.746l-22.57,0.058v-2.781
			l22.565-0.058l-0.035-12.435c-0.005-2.554-1.854-4.621-4.134-4.61l-6.52,0.015L119.376,0l-9.462,0.022l0.006,2.859l-10.725,0.03
			l0.056,30.359l2.49-0.004l0.025,9.547l-3.729,0.014l-0.025-11.996l-4.971,0.004c-1.859,0.006-2.797,1.705-2.786,3.795l0.015,8.369
			c0,2.084,0.942,3.777,2.812,3.768l21.773-0.051c1.864-0.004,2.802-1.697,2.791-3.799L117.627,33.215 M107.469,6.534l14.303-0.042
			l0.005,2.325L107.474,8.86L107.469,6.534 M107.485,12.608l14.302-0.043l0.005,2.098l-14.307,0.032V12.608 M110.085,33.241
			l0.02,9.557l-2.601,0.004l-0.03-9.555h0.056L110.085,33.241z"/>
		<path d="M350.263,4.399c-1.223-3.162-4.238-4.404-6.273-4.397l-23.965,0.063l-14.848,23.74c-1.018,1.383,0.631,5.438,4.305,5.426
			l12.639-0.039l-10.232,16.061c0,0.537,0.666,0.998,1.607,1.188l13.746-0.035l10.855-17.248l0.33-0.006l8.373-0.02l-0.014-5.393
			l-5.287,0.01l9.004-14.31l0.066-0.098C351.015,7.983,350.73,5.598,350.263,4.399 M325.564,23.795l-6.51,0.02L329.853,6.51
			l6.75-0.016L325.564,23.795z"/>
		<polygon points="471.365,7.206 473.244,0.621 464.98,0.639 463.097,7.229 462.611,7.229 462.595,0.644 454.322,0.671 
			454.337,7.251 453.289,7.256 450.853,0.682 442.589,0.701 445.011,7.273 436.462,7.296 436.482,16.512 444.746,16.491 
			444.736,11.195 468.753,11.127 468.763,16.421 477.037,16.401 477.017,7.191 "/>
		<path d="M463.763,27.303l6.695-4.846c0.67-0.42,1.412-1.009,1.697-1.661l0.012-0.004h-0.006c0.1-0.23,0.16-0.474,0.16-0.727
			c0-0.537-0.25-1.024-0.65-1.408c-0.492-0.461-1.213-0.762-2.025-0.777l-30.703,0.077l0.004,4.007l17.139-0.052l-4.014,4.019
			l0.01,5.406l-16.111,0.045l0.006,3.838l16.111-0.049l0.01,2.922l-7.006,0.02l2.174,7.736l13.41-0.029
			c1.73-0.006,3.123-1.574,3.117-3.508l-0.016-7.166l13.08-0.035l-0.004-3.834l-13.08,0.035L463.763,27.303z"/>
		<path d="M61.842,46.856c-2.436,0.006-3.633-2.736-3.183-5.357l0.326-0.756l12.077-28.235l9.306-0.027l-4.305,10.325l7.632-0.02
			l5.397,18.898c0.531,1.67,0.902,5.098-1.629,5.098L61.842,46.856 M68.873,40.096l11.065-0.035l-4.881-14.918L68.873,40.096z"/>
		<path d="M395.941,45.909l8.193-0.025l-0.041-20.25l10.775-0.035l-0.051-22.497l-18.967,0.05L395.941,45.909z M404.009,7.146
			l3.994-0.005l0.01,4.596l-3.994,0.015L404.009,7.146 M404.029,15.284l3.994-0.01l0.01,6.802l-3.994,0.011L404.029,15.284z"/>
		<path d="M429.716,3.06l-13.529,0.035h-0.021l0.045,22.504l9.387-0.025l0.016,8.781c-0.01-0.016-0.025-0.041-0.025-0.041
			c0.004,1.533-1.098,2.775-2.471,2.775l-6.836,0.025l1.213,8.734l12.313-0.029c2.307-0.01,4.176-1.84,4.17-4.414l-0.07-33.695
			C433.902,5.134,432.021,3.057,429.716,3.06 M425.572,22.031l-3.998,0.013l-0.02-6.811l3.998-0.004L425.572,22.031 M425.546,11.691
			l-3.998,0.01l-0.01-4.601l3.998-0.01L425.546,11.691z"/>
	</g>
</svg>
