<?xml version="1.0" encoding="utf-8"?>
<!-- Generator: Adobe Illustrator 21.0.0, SVG Export Plug-In . SVG Version: 6.00 Build 0)  -->
<svg version="1.1" id="レイヤー_1" xmlns="http://www.w3.org/2000/svg" xmlns:xlink="http://www.w3.org/1999/xlink" x="0px"
	 y="0px" viewBox="0 0 800 204.1" style="enable-background:new 0 0 800 204.1;" xml:space="preserve">
<style type="text/css">
	.st0{fill:#FFFFFF;}
</style>
<title>ostraca_title</title>
<g id="レイヤー_2">
	<g id="レイヤー_1-2">
		<path class="st0" d="M0,72.7C0,56,0.5,44.9,1.4,39.3c0.7-4.8,2.3-9.5,4.7-13.8c3.8-7.1,9.4-13.2,16.2-17.6
			c8-5.4,17.6-8.2,27.3-7.9c18.2-0.4,35,9.6,43.3,25.7c2.6,4.1,4.2,8.8,4.8,13.6c1.1,11.1,1.5,22.2,1.2,33.4
			c0.2,11.1-0.2,22.1-1.2,33.2c-0.6,4.9-2.2,9.6-4.8,13.8c-3.7,7.1-9.1,13.1-15.8,17.5c-8.2,5.5-17.8,8.4-27.6,8.2
			c-9.7,0.1-19.2-2.8-27.3-8.2c-6.8-4.4-12.3-10.4-16.2-17.5c-1-2.2-1.9-4.2-2.7-6.2c-0.9-2.5-1.5-5-1.9-7.7
			C0.4,100.1,0,89.1,0,72.7z M21,72.7c0,14.1,0.5,23.6,1.5,28.6c0.6,4.5,2.5,8.6,5.4,12.1c2.3,3,5.3,5.5,8.8,7.2
			c3.9,2.2,8.3,3.4,12.8,3.3c4.6,0.1,9.1-1,13-3.3c3.3-1.7,6.2-4.2,8.4-7.2c2.9-3.5,4.9-7.6,5.7-12.1c0.9-5,1.4-14.5,1.4-28.6
			c0.3-9.6-0.2-19.2-1.4-28.8c-0.8-4.4-2.7-8.5-5.6-11.9c-2.2-3.1-5.1-5.6-8.4-7.4c-4.1-2-8.5-3-13-3c-4.4,0-8.8,1-12.8,3
			c-3.4,1.8-6.4,4.3-8.8,7.4c-2.9,3.4-4.7,7.5-5.4,11.9C21.5,49,21,58.6,21,72.7z"/>
		<path class="st0" d="M129,109.6c11,9.4,25,14.4,39.4,14.3c18-0.3,27.1-6.9,27.4-19.9c0.1-10.7-5.9-17.1-18-19.2
			c-5.6-0.8-11.7-1.7-18.3-2.7c-11.9-2-21-6.6-27.2-13.6c-6.4-7.3-9.9-16.8-9.6-26.5c0-12.5,4-22.6,12.1-30.3
			C142.4,4,153.4,0.1,167.7,0c16.2,0.1,31.9,5.3,44.9,14.9l-11.7,17.8c-10.1-7-22.1-10.8-34.3-11c-5.8-0.2-11.5,1.6-16.2,5
			c-4.5,3.5-6.8,8.6-6.9,15.4c0,4.2,1.7,8.2,4.7,11.2c3.1,3.4,8.1,5.8,14.9,7.1c3.8,0.7,9,1.4,15.6,2.3c13,1.8,22.6,6.6,28.8,14.4
			c6.1,7.5,9.4,17,9.2,26.7c-0.7,27.4-16.9,41.2-48.6,41.6c-19.5,0.4-38.3-6.6-52.9-19.5L129,109.6z"/>
		<path class="st0" d="M266,20.4h-38V1.3h97v19.1h-38v123.8h-21V20.4z"/>
		<path class="st0" d="M343,1.2h54.1c11.6,0,21,3.1,28.3,9.4c8.8,7.1,13.3,17.3,13.7,30.5c-0.2,19.4-9.1,32.6-26.7,39.7l31.9,63.4
			h-24.8l-28.7-61.1h-26.9v61.1h-21V1.2H343z M363.9,63.8h31.9c7.9-0.1,13.8-2.5,17.7-7.1c3.9-4.3,6-9.9,5.8-15.7
			c-0.2-7.5-2.5-12.8-7-16.1c-3.6-2.9-8.7-4.4-15.4-4.4h-33V63.8z"/>
		<path id="_複合パス_" class="st0" d="M536.5,112.2H484l-10.6,31.9h-22.2L501.4,1.2H519l50.4,143h-22.2L536.5,112.2z
			 M530.5,93.1l-20-62.6h-0.4l-20,62.6H530.5z"/>
		<path class="st0" d="M677.8,104.2c-3,13.3-8.8,23.4-17.4,30.5c-8.9,7.1-19.9,10.9-31.3,10.6c-18-0.1-34.7-9.9-43.4-25.7
			c-1-2.2-1.9-4.2-2.8-6.2c-0.9-2.5-1.5-5-1.9-7.7c-0.9-5.8-1.4-16.8-1.4-33.2c0-16.6,0.5-27.7,1.4-33.4c0.7-4.8,2.3-9.4,4.7-13.6
			c3.8-7.1,9.4-13.2,16.2-17.7c8-5.5,17.6-8.3,27.3-8C642.6-0.1,653.5,4,661.9,12c8.4,8.1,14,18.6,16,30.1h-22.3
			c-1.7-5.7-4.9-10.8-9.3-14.7c-4.8-3.9-10.9-6-17.1-6c-4.4,0-8.8,1-12.8,3c-3.4,1.8-6.4,4.3-8.8,7.4c-2.9,3.4-4.7,7.5-5.4,11.9
			c-1,5.1-1.5,14.7-1.5,28.8s0.5,23.6,1.5,28.6c0.6,4.5,2.5,8.6,5.4,12.1c2.3,3,5.3,5.5,8.8,7.2c3.9,2.2,8.3,3.4,12.8,3.3
			c11.8,0,20.6-6.5,26.5-19.6L677.8,104.2z"/>
		<path class="st0" d="M767.1,112.2h-52.5L704,144.1h-22.2L732.1,1.2h17.6l50.4,143h-22.2L767.1,112.2z M761.1,93.1l-20-62.6h-0.4
			l-20,62.5L761.1,93.1z"/>
		<path id="_複合パス_2" class="st0" d="M536.5,112.2H484l-10.6,31.9h-22.2L501.4,1.2H519l50.4,143h-22.2L536.5,112.2z
			 M530.5,93.1l-20-62.6h-0.4l-20,62.6H530.5z"/>
		<path class="st0" d="M101.7,190.9l9.9-13.2l-9.9-11v-3.6H122v4.5h-13.6l9.1,10l-9.9,12.6h14.6v4.5h-20.5V190.9z"/>
		<path class="st0" d="M135.2,195.1c-2.5,0.2-4.9-0.6-6.7-2.3c-1.5-1.7-2.2-3.9-2.1-6.1v-14.6h4.5v13.5c-0.1,1.3,0.4,2.6,1.3,3.6
			c0.8,0.8,1.9,1.3,3.1,1.3c0.9,0,1.7-0.1,2.5-0.4c0.7-0.2,1.2-0.7,1.6-1.3c0.4-0.7,0.7-1.6,0.8-2.4c0.2-1.2,0.2-2.5,0.2-3.8
			c0.1-1.7-0.1-3.4-0.6-5.1c-0.3-1.1-1.1-2-2.1-2.5l3.3-3.2c0.8,0.5,1.5,1.2,2.1,2c0.5,0.7,0.9,1.5,1.2,2.4s0.4,1.9,0.5,2.9
			c0,1.1,0,2.3,0,3.6s0,2.7,0,3.7c0,0.9-0.1,1.7-0.2,2.6c-0.1,0.6-0.3,1.3-0.6,1.8s-0.6,1.1-1.1,1.5c-0.8,1-1.9,1.7-3.2,2.1
			C138.3,194.9,136.8,195.1,135.2,195.1z M132.2,169.3h3.6l6.1-6.5h-5.8L132.2,169.3z"/>
		<path class="st0" d="M158.5,195.1c-0.8,0-1.6-0.1-2.4-0.3c-0.7-0.2-1.3-0.4-1.9-0.7c-0.5-0.2-1-0.6-1.5-0.9
			c-0.4-0.3-0.8-0.7-1.1-1.1c-0.4-0.4-0.8-0.9-1.1-1.5s-0.6-1.1-0.8-1.8c-0.2-0.8-0.4-1.5-0.4-2.3c-0.1-0.9-0.1-1.9-0.1-3.1
			c0-1.2,0-2.3,0.1-3.1s0.2-1.5,0.4-2.3c0.2-0.6,0.5-1.1,0.8-1.7c0.3-0.5,0.7-1,1.1-1.5c0.3-0.4,0.7-0.7,1.1-1
			c0.5-0.4,1-0.7,1.5-0.9c0.6-0.3,1.3-0.5,1.9-0.7c1.6-0.4,3.2-0.4,4.8,0h9v4.3H166l0,0c0.6,0.8,1.1,1.8,1.3,2.8
			c0.3,1.4,0.5,2.8,0.4,4.3c0,1.2,0,2.3-0.1,3.1s-0.2,1.6-0.4,2.3c-0.2,0.6-0.4,1.2-0.8,1.8c-0.3,0.5-0.7,1-1.1,1.5
			c-0.3,0.4-0.7,0.7-1.1,1.1c-0.4,0.4-0.9,0.7-1.5,0.9C161.4,194.9,160,195.2,158.5,195.1L158.5,195.1z M158.5,190.6
			c0.7,0,1.5-0.2,2.1-0.5s1.1-0.7,1.5-1.2c0.2-0.3,0.4-0.6,0.5-0.9c0.2-0.3,0.3-0.6,0.4-1c0.1-0.5,0.2-0.9,0.2-1.4
			c0-0.6,0-1.2,0-2.1c0-0.9,0-1.5,0-2.1c0-0.5-0.1-1-0.2-1.4c-0.1-0.4-0.2-0.7-0.4-1s-0.3-0.6-0.5-0.9c-0.4-0.5-0.9-0.9-1.5-1.2
			c-1.4-0.6-2.9-0.6-4.3,0c-0.6,0.3-1.1,0.7-1.5,1.2c-0.2,0.3-0.4,0.6-0.5,0.9c-0.2,0.3-0.3,0.7-0.4,1c-0.1,0.5-0.2,0.9-0.2,1.4
			c0,0.6,0,1.2,0,2.1c0,0.9,0,1.5,0,2.1c0,0.5,0.1,0.9,0.2,1.4c0.1,0.4,0.2,0.7,0.4,1s0.3,0.6,0.5,0.9c0.4,0.5,0.9,0.9,1.5,1.2
			C157.1,190.5,157.8,190.6,158.5,190.6L158.5,190.6z"/>
		<path class="st0" d="M181.5,194.6c-0.7-0.2-1.3-0.5-1.8-0.9s-1-1-1.2-1.7c-0.3-0.8-0.5-1.7-0.4-2.6v-12.9h-6.9v-4.3h18.1v4.3h-6.7
			V189c0,1,0.6,1.6,1.7,1.6h1.6v4.3h-2C183,194.8,182.3,194.7,181.5,194.6z"/>
		<path class="st0" d="M206.2,181.4c0.1-1.3-0.4-2.6-1.3-3.6c-0.8-0.9-2-1.3-3.2-1.3s-2.4,0.4-3.2,1.3c-0.9,1-1.4,2.3-1.3,3.6v13.5
			h-4.5v-22.7h4.5v2.4l0,0c0.7-0.8,1.6-1.5,2.6-2s2.2-0.7,3.3-0.7c0.9,0,1.8,0.2,2.7,0.5s1.7,0.9,2.4,1.5c0.8,0.7,1.4,1.5,1.8,2.5
			c0.5,1.1,0.7,2.2,0.7,3.4v24.3h-4.5V181.4z"/>
		<path class="st0" d="M216.6,172.2h4.5v13.7c-0.1,1.3,0.4,2.6,1.3,3.5c0.9,0.8,2.1,1.2,3.3,1.1c1.2,0,2.3-0.4,3.2-1.3
			c0.9-1,1.4-2.3,1.3-3.6v-13.5h4.5v22.7h-4.5v-2.3c-0.8,0.9-1.8,1.5-2.8,2c-1,0.4-2,0.6-3.1,0.6s-2.1-0.3-3-0.8v9.7h-4.5
			L216.6,172.2z"/>
		<path class="st0" d="M247.5,195.1c-1.3,0-2.5-0.2-3.6-0.9c-0.9-0.6-1.8-1.3-2.5-2.1c-0.3-0.3-0.6-0.7-0.8-1.2s-0.4-1.1-0.5-1.6
			c-0.1-0.8-0.2-1.6-0.3-2.4c0-0.9,0-2.1,0-3.5s0-2.6,0.1-3.5c0.1-0.8,0.2-1.6,0.3-2.3c0.2-1.7,1.1-3.2,2.5-4.3s3.1-1.6,4.8-1.6
			c0.9,0,1.8,0.1,2.6,0.4c0.7,0.2,1.4,0.5,2,0.9c0.5,0.4,1,0.8,1.4,1.3c0.3,0.4,0.6,0.8,0.9,1.2l0.4-3.5h4.5l-1.2,11.3l1.2,11.3
			h-4.5l-0.4-3.7c-0.3,0.5-0.7,1.1-1,1.5c-0.4,0.5-0.9,0.9-1.4,1.3c-0.6,0.4-1.2,0.7-1.9,0.9C249.3,195,248.4,195.1,247.5,195.1z
			 M248.8,190.6c0.6,0,1.1-0.1,1.6-0.4c0.5-0.3,0.8-0.6,1.1-1c0.3-0.5,0.6-1,0.8-1.5c0.2-0.6,0.4-1.1,0.6-1.8l0.7-2.4l-0.7-2.6
			c-0.1-0.6-0.3-1.1-0.5-1.7c-0.2-0.5-0.5-1-0.8-1.4s-0.7-0.7-1.1-1c-0.5-0.3-1-0.4-1.6-0.4c-0.9,0-1.8,0.2-2.5,0.6
			c-0.6,0.4-1.1,1-1.4,1.6c-0.3,0.7-0.5,1.5-0.5,2.3s0,1.7,0,2.5c0,0.9,0,1.6,0,2.4c0,0.8,0.2,1.6,0.5,2.3s0.8,1.2,1.4,1.7
			C247.1,190.4,248,190.6,248.8,190.6L248.8,190.6z"/>
		<path class="st0" d="M283.9,163.1h4.5l12.1,31.8h-28.7L283.9,163.1z M293.7,190.3l-7.5-20.8l-7.5,20.8H293.7z"/>
		<path class="st0" d="M307,194.6c-0.7-0.2-1.3-0.5-1.8-0.9c-0.5-0.5-1-1-1.2-1.7c-0.3-0.8-0.5-1.7-0.4-2.6v-17.2h4.5V189
			c0,1,0.6,1.6,1.7,1.6h1.6v4.3h-2.1C308.5,194.8,307.8,194.7,307,194.6z"/>
		<path class="st0" d="M322,195.1c-1.3,0-2.5-0.2-3.6-0.9c-0.9-0.6-1.8-1.3-2.5-2.1c-0.3-0.3-0.6-0.7-0.8-1.2
			c-0.2-0.5-0.4-1.1-0.5-1.6c-0.1-0.8-0.2-1.6-0.3-2.4c0-0.9,0-2.1,0-3.5s0-2.6,0.1-3.5c0.1-0.8,0.2-1.6,0.3-2.3
			c0.2-1.7,1.1-3.2,2.5-4.3s3.1-1.6,4.8-1.6c0.9,0,1.8,0.1,2.6,0.4c0.7,0.2,1.4,0.5,2,0.9c0.5,0.4,1,0.8,1.4,1.3
			c0.3,0.4,0.6,0.8,0.9,1.2l0.4-3.5h4.5l-1.2,11.3l1.2,11.3h-4.5l-0.4-3.7c-0.3,0.5-0.7,1.1-1,1.5c-0.4,0.5-0.9,0.9-1.4,1.3
			c-0.6,0.4-1.2,0.7-1.9,0.9C323.7,195,322.8,195.1,322,195.1z M323.3,190.6c0.6,0,1.1-0.1,1.6-0.4c0.5-0.3,0.8-0.6,1.1-1
			c0.3-0.5,0.6-1,0.8-1.5c0.2-0.6,0.4-1.1,0.6-1.8l0.7-2.4l-0.7-2.6c-0.1-0.6-0.3-1.1-0.5-1.7c-0.2-0.5-0.5-1-0.8-1.4
			s-0.7-0.7-1.1-1c-0.5-0.3-1-0.4-1.6-0.4c-0.9,0-1.8,0.2-2.5,0.6c-0.6,0.4-1.1,1-1.4,1.6c-0.3,0.7-0.5,1.5-0.5,2.3s0,1.7,0,2.5
			c0,0.9,0,1.6,0,2.4c0,0.8,0.2,1.6,0.5,2.3s0.8,1.2,1.4,1.7C321.6,190.4,322.4,190.6,323.3,190.6L323.3,190.6z"/>
		<path class="st0" d="M343,187.8l-7.4-15.5h5.2l4.8,11.5l4.7-11.5h5.2l-7.5,15.5l7.8,16.4h-5.3l-5-11.8l-5,11.8h-5.2L343,187.8z"/>
		<path class="st0" d="M366.4,195.1c-2.3,0.1-4.6-0.4-6.7-1.6c-1.6-1.1-2.5-3-2.3-5c0-0.5,0-0.9,0.1-1.4s0.3-1.1,0.6-1.6
			c0.3-0.5,0.8-1,1.3-1.4c0.6-0.5,1.4-0.8,2.1-1c-0.4-0.2-0.9-0.4-1.3-0.6c-0.5-0.3-0.9-0.6-1.3-1s-0.7-0.9-0.9-1.4
			c-0.3-0.6-0.4-1.3-0.4-2c0-1.8,0.7-3.4,2.1-4.5c2-1.3,4.4-2,6.8-1.7c1,0,2,0.1,3,0.3c0.8,0.2,1.6,0.4,2.4,0.7
			c0.7,0.3,1.3,0.6,1.8,1s1,0.9,1.5,1.4l-2.9,3.1c-0.3-0.3-0.6-0.6-1-0.9c-0.4-0.3-0.7-0.5-1.1-0.7c-0.5-0.2-1-0.3-1.6-0.4
			c-0.8-0.1-1.5-0.1-2.3-0.1c-1.1-0.1-2.2,0.1-3.2,0.6c-0.7,0.4-1.1,1.1-1,1.9c0,0.7,0.3,1.4,0.9,1.8c0.9,0.6,1.9,0.8,3,0.7h3.8v4.1
			H366c-0.5,0-1,0-1.5,0c-0.4,0-0.9,0.2-1.3,0.4s-0.7,0.5-0.9,0.8c-0.3,0.4-0.4,0.9-0.4,1.4c0,0.9,0.4,1.7,1.1,2.1
			c1,0.6,2.1,0.9,3.3,0.8c0.7,0,1.4,0,2.1-0.1c0.5-0.1,1-0.2,1.5-0.4s0.9-0.5,1.3-0.8c0.5-0.4,1-0.8,1.4-1.3l3.4,3
			c-0.7,0.8-1.6,1.5-2.5,2.1c-0.8,0.5-1.6,0.9-2.4,1.2s-1.6,0.4-2.4,0.5L366.4,195.1z"/>
		<path class="st0" d="M383.1,162.9h5.8l-6.2,6.5H379L383.1,162.9z M385,194.9h2.1v-4.3h-1.6c-1.1,0-1.7-0.5-1.7-1.6v-16.9h-4.5
			v17.1c0,0.9,0.1,1.8,0.4,2.6c0.3,0.7,0.7,1.2,1.2,1.7c0.5,0.4,1.2,0.8,1.8,0.9C383.5,194.7,384.2,194.8,385,194.9z"/>
		<path class="st0" d="M390.7,183.5c0-1.4,0-2.5,0-3.4c0-0.8,0.1-1.6,0.3-2.3c0.1-0.6,0.4-1.1,0.7-1.7c0.3-0.5,0.7-1,1-1.5
			c0.8-0.9,1.8-1.5,3-2c1.3-0.5,2.6-0.8,3.9-0.8c0.9,0,1.8,0.1,2.7,0.2c0.7,0.1,1.4,0.3,2.1,0.6c0.6,0.2,1.1,0.6,1.5,0.9
			c0.4,0.3,0.8,0.7,1.1,1.2c0.3,0.4,0.5,0.8,0.7,1.2c0.2,0.5,0.4,1,0.5,1.6c0.1,0.8,0.2,1.6,0.3,2.3c0,0.9,0,2.1,0,3.5s0,2.6,0,3.4
			c0,0.8-0.1,1.6-0.3,2.3c-0.1,0.6-0.3,1.1-0.5,1.6c-0.2,0.4-0.5,0.8-0.7,1.2c-0.7,0.9-1.5,1.6-2.5,2.1c-1.1,0.6-2.4,0.8-3.6,0.8
			c-1.1,0-2.2-0.2-3.1-0.7c-1-0.5-1.9-1.2-2.7-2v11.6h-4.5L390.7,183.5z M399.6,190.6c0.9,0.1,1.8-0.2,2.5-0.6
			c0.6-0.4,1-0.9,1.3-1.6c0.3-0.7,0.5-1.5,0.5-2.3c0-0.9,0.1-1.7,0.1-2.6c0-0.9,0-1.8-0.1-2.6s-0.2-1.5-0.5-2.3
			c-0.3-0.7-0.7-1.2-1.3-1.6c-0.8-0.5-1.6-0.7-2.5-0.7c-0.9-0.1-1.7,0.2-2.5,0.6c-0.6,0.4-1.1,1-1.3,1.6c-0.3,0.7-0.5,1.5-0.6,2.3
			c0,0.8-0.1,1.7-0.1,2.6c0,1.1,0.1,2.2,0.2,3.3c0.1,1,0.5,1.9,1.3,2.6c0.3,0.4,0.8,0.6,1.2,0.8C398.5,190.5,399,190.6,399.6,190.6z
			"/>
		<path class="st0" d="M417.3,194.6c-0.7-0.2-1.3-0.5-1.8-0.9s-1-1-1.2-1.7c-0.3-0.8-0.5-1.7-0.4-2.6v-17.2h4.5V189
			c0,1,0.6,1.6,1.7,1.6h1.6v4.3h-2.1C418.8,194.8,418.1,194.7,417.3,194.6z"/>
		<path class="st0" d="M433.5,195.1c-0.8,0-1.6-0.1-2.4-0.3c-0.7-0.2-1.3-0.4-1.9-0.7c-0.5-0.2-1-0.6-1.5-0.9
			c-0.4-0.3-0.8-0.7-1.1-1.1c-0.4-0.4-0.8-0.9-1.1-1.5c-0.3-0.6-0.6-1.1-0.8-1.8c-0.2-0.8-0.4-1.5-0.4-2.3c-0.1-0.9-0.1-1.9-0.1-3.1
			c0-1.2,0-2.3,0.1-3.1s0.2-1.5,0.4-2.3c0.2-0.6,0.4-1.2,0.8-1.7c0.3-0.5,0.7-1,1.1-1.5c0.3-0.4,0.7-0.7,1.1-1
			c0.5-0.4,1-0.7,1.5-0.9c0.6-0.3,1.3-0.5,1.9-0.7c1.6-0.4,3.2-0.4,4.8,0h9v4.3H441l0,0c0.6,0.8,1.1,1.8,1.3,2.8
			c0.3,1.4,0.5,2.8,0.4,4.3c0,1.2,0,2.3-0.1,3.1s-0.2,1.6-0.4,2.3c-0.2,0.6-0.4,1.2-0.8,1.8c-0.3,0.5-0.7,1-1.1,1.5
			c-0.3,0.4-0.7,0.7-1.1,1.1c-0.4,0.4-0.9,0.7-1.5,0.9C436.5,194.8,435,195.2,433.5,195.1L433.5,195.1z M433.5,190.6
			c0.7,0,1.5-0.2,2.1-0.5s1.1-0.7,1.5-1.2c0.2-0.3,0.4-0.6,0.5-0.9c0.2-0.3,0.3-0.7,0.4-1c0.1-0.5,0.2-0.9,0.2-1.4
			c0-0.6,0-1.2,0-2.1c0-0.9,0-1.5,0-2.1c0-0.5-0.1-1-0.2-1.4s-0.2-0.7-0.4-1c-0.2-0.3-0.3-0.6-0.5-0.9c-0.4-0.5-0.9-0.9-1.5-1.2
			c-1.4-0.6-2.9-0.6-4.3,0c-0.6,0.3-1.1,0.7-1.5,1.2c-0.2,0.3-0.4,0.6-0.5,0.9c-0.2,0.3-0.3,0.7-0.4,1c-0.1,0.5-0.2,0.9-0.2,1.4
			c0,0.6,0,1.2,0,2.1c0,0.9,0,1.5,0,2.1c0,0.5,0.1,0.9,0.2,1.4c0.1,0.4,0.2,0.7,0.4,1c0.2,0.3,0.3,0.6,0.5,0.9
			c0.4,0.5,0.9,0.9,1.5,1.2C432.1,190.4,432.8,190.6,433.5,190.6L433.5,190.6z"/>
		<path class="st0" d="M462.1,181.4c0.1-1.3-0.4-2.6-1.3-3.6c-0.8-0.9-2-1.3-3.2-1.3s-2.4,0.4-3.2,1.3c-0.9,1-1.4,2.3-1.3,3.6v13.5
			h-4.6v-22.7h4.5v2.4l0,0c0.7-0.9,1.6-1.5,2.6-2s2.2-0.7,3.3-0.7c0.9,0,1.8,0.2,2.7,0.5c0.9,0.3,1.7,0.9,2.4,1.5
			c0.7,0.7,1.3,1.5,1.8,2.5c0.5,1.1,0.7,2.2,0.7,3.4v24.3H462L462.1,181.4z"/>
		<path class="st0" d="M480.9,198.9h1.7c1.7,0,2.6-0.7,2.6-2c0-0.5-0.2-1-0.6-1.3c-0.6-0.4-1.3-0.6-2-0.5h-1.1
			c-1.4,0-2.8-0.2-4.1-0.6c-1.3-0.4-2.4-1.1-3.4-2c-1-1-1.8-2.2-2.3-3.6c-0.6-1.7-0.9-3.5-0.9-5.3s0.2-3.6,0.9-5.3
			c0.5-1.4,1.3-2.6,2.4-3.6c0.9-0.9,2-1.7,3.3-2.1c1.2-0.4,2.5-0.7,3.8-0.7c0.9,0,1.8,0.1,2.6,0.2c0.8,0.2,1.6,0.5,2.3,0.9
			c0.6,0.3,1.2,0.8,1.7,1.2c0.5,0.5,1,1,1.5,1.6l-3.4,3c-1-1.6-2.8-2.5-4.7-2.4c-1.6-0.1-3.1,0.5-4.3,1.7c-2,3.3-2,7.5,0,10.8
			c1.2,1.2,2.8,1.8,4.4,1.6h0.8c2-0.2,4.1,0.3,5.8,1.4c1.4,1.3,2,3.1,1.8,4.9c0,0.9-0.1,1.7-0.3,2.6c-0.2,0.7-0.6,1.4-1.2,2
			s-1.4,1-2.3,1.3c-1.2,0.3-2.4,0.5-3.6,0.4H481L480.9,198.9z"/>
		<path class="st0" d="M501.5,190.9l9.9-13.2l-9.9-11v-3.6h20.3v4.5h-13.6l9.1,10l-9.9,12.6H522v4.5h-20.5V190.9z"/>
		<path class="st0" d="M535.1,195.1c-2.5,0.2-4.9-0.6-6.7-2.3c-1.5-1.7-2.2-3.9-2.1-6.1v-14.6h4.5v13.5c-0.1,1.3,0.4,2.6,1.3,3.6
			c0.8,0.8,1.9,1.3,3.1,1.3c0.9,0,1.7-0.1,2.5-0.4c0.7-0.2,1.2-0.7,1.6-1.3c0.4-0.7,0.7-1.6,0.8-2.4c0.2-1.2,0.2-2.5,0.2-3.8
			c0.1-1.7-0.1-3.4-0.6-5.1c-0.3-1.1-1.1-2-2.1-2.5l3.3-3.2c0.8,0.5,1.5,1.2,2.1,2c0.5,0.7,0.9,1.6,1.2,2.4c0.3,0.9,0.4,1.9,0.5,2.9
			c0,1.1,0,2.3,0,3.6s0,2.7,0,3.7c0,0.9-0.1,1.7-0.2,2.6c-0.1,0.6-0.3,1.3-0.6,1.8s-0.6,1.1-1.1,1.5c-0.8,1-1.9,1.7-3.2,2.1
			C538.2,195,536.7,195.2,535.1,195.1z"/>
		<path class="st0" d="M550.2,172.2h4.5v13.7c-0.1,1.3,0.4,2.6,1.3,3.5c0.9,0.8,2.1,1.2,3.3,1.1c1.2,0,2.3-0.4,3.2-1.3
			c0.9-1,1.4-2.3,1.3-3.6v-13.5h4.5v22.7h-4.5v-2.3c-0.8,0.9-1.8,1.5-2.8,2c-1,0.4-2,0.6-3.1,0.6s-2.1-0.3-3-0.8v9.7h-4.5v-31.8
			H550.2z"/>
		<path class="st0" d="M574.1,172.2h4.5v13.7c-0.1,1.3,0.4,2.6,1.3,3.5c0.9,0.8,2.1,1.2,3.3,1.1c1.2,0,2.3-0.4,3.2-1.3
			c0.9-1,1.4-2.3,1.3-3.6v-13.5h4.5v22.7h-4.5v-2.3c-0.8,0.9-1.8,1.5-2.8,2c-1,0.4-2,0.6-3.1,0.6s-2.1-0.3-3-0.8v9.7h-4.5
			L574.1,172.2z"/>
		<path class="st0" d="M606,195.1c-2.3,0.1-4.6-0.4-6.7-1.6c-1.6-1.1-2.5-3-2.3-5c0-0.5,0-0.9,0.1-1.4s0.3-1.1,0.6-1.6
			s0.8-1,1.3-1.4c0.6-0.5,1.4-0.8,2.1-1c-0.4-0.2-0.9-0.4-1.3-0.6c-0.5-0.3-0.9-0.6-1.3-1c-0.4-0.4-0.7-0.9-0.9-1.4
			c-0.3-0.6-0.4-1.3-0.4-2c0-1.8,0.8-3.4,2.1-4.5c2-1.3,4.4-2,6.8-1.7c1,0,2,0.1,3,0.3c0.8,0.1,1.6,0.4,2.4,0.7
			c0.7,0.3,1.3,0.6,1.8,1s1,0.9,1.5,1.4l-2.9,3.1c-0.3-0.3-0.6-0.6-1-0.9c-0.4-0.3-0.7-0.5-1.1-0.7c-0.5-0.2-1-0.3-1.6-0.4
			c-0.8-0.1-1.5-0.1-2.3-0.1c-1.1-0.1-2.2,0.1-3.2,0.6c-0.7,0.4-1.1,1.1-1,1.9c0,0.7,0.3,1.4,0.9,1.8c0.9,0.6,1.9,0.8,3,0.7h3.8v4.1
			h-3.8c-0.5,0-1,0-1.5,0c-0.4,0-0.9,0.2-1.3,0.4c-0.4,0.2-0.7,0.5-0.9,0.8c-0.3,0.4-0.4,0.9-0.4,1.4c0,0.9,0.4,1.7,1.1,2.1
			c1,0.6,2.1,0.9,3.3,0.8c0.7,0,1.4,0,2.1-0.1c0.5-0.1,1-0.2,1.5-0.4s0.9-0.5,1.3-0.8c0.5-0.4,1-0.8,1.4-1.3l3.4,3
			c-0.7,0.8-1.6,1.5-2.5,2.1c-0.8,0.5-1.6,0.9-2.4,1.2c-0.8,0.3-1.6,0.4-2.4,0.5L606,195.1z"/>
		<path class="st0" d="M626.7,194.6c-0.7-0.2-1.3-0.5-1.8-0.9c-0.5-0.5-1-1-1.2-1.7c-0.3-0.8-0.5-1.7-0.4-2.6v-12.9h-6.9v-4.3h18.2
			v4.3h-6.7V189c0,1,0.6,1.6,1.7,1.6h1.6v4.3h-2C628.3,194.8,627.5,194.7,626.7,194.6z"/>
		<path class="st0" d="M646.1,195.1c-2.6,0-5.1-1-6.9-2.9c-0.9-0.9-1.5-2-1.9-3.3c-0.5-1.8-0.7-3.6-0.6-5.4
			c-0.1-1.8,0.1-3.7,0.6-5.5c0.4-1.2,1-2.3,1.9-3.2c0.7-0.8,1.6-1.5,2.6-2c1.3-0.6,2.8-0.9,4.3-0.9s2.9,0.3,4.3,0.9
			c1,0.5,1.8,1.2,2.5,2c0.9,0.9,1.6,2,1.9,3.2c0.4,1.8,0.6,3.6,0.6,5.5c0.1,1.8-0.1,3.7-0.6,5.4c-0.4,1.2-1,2.3-1.9,3.3l-0.5,0.5
			c-0.2,0.2-0.4,0.3-0.6,0.5c-0.4,0.4-0.9,0.7-1.5,0.9C649,194.8,647.6,195.1,646.1,195.1z M646.1,190.6c0.7,0,1.5-0.2,2.1-0.5
			c0.6-0.2,1.1-0.6,1.5-1.1c0.5-0.6,0.8-1.2,0.9-2c0-0.4,0.1-0.8,0.1-1.4c0-0.6,0-1.2,0-2s0-1.5,0-2.1s0-1.1-0.1-1.5
			c-0.1-0.7-0.4-1.3-0.9-1.9c-0.4-0.5-0.9-0.9-1.5-1.2c-1.4-0.6-2.9-0.6-4.3,0c-0.6,0.3-1.1,0.7-1.5,1.2c-0.4,0.6-0.7,1.2-0.9,1.9
			c-0.2,1.2-0.3,2.3-0.3,3.5s0,2.3,0.3,3.4c0.2,0.7,0.4,1.4,0.9,2c0.4,0.5,1,0.8,1.5,1.1C644.7,190.4,645.4,190.6,646.1,190.6
			L646.1,190.6z"/>
		<path class="st0" d="M664.8,187.8l-7.4-15.5h5.2l4.8,11.5l4.7-11.5h5.2l-7.5,15.5l7.8,16.4h-5.3l-5-11.8l-5.1,11.8H657
			L664.8,187.8z"/>
		<path class="st0" d="M693.8,181.4c0.1-1.3-0.4-2.6-1.3-3.6c-0.8-0.9-2-1.3-3.2-1.3s-2.4,0.4-3.2,1.3c-0.9,1-1.4,2.3-1.3,3.6v13.5
			h-4.5v-22.7h4.5v2.4l0,0c0.7-0.9,1.6-1.5,2.6-2s2.2-0.7,3.3-0.7c0.9,0,1.8,0.2,2.7,0.5s1.7,0.9,2.4,1.5c0.7,0.7,1.3,1.5,1.8,2.5
			c0.5,1.1,0.7,2.2,0.7,3.4v24.3h-4.5V181.4z M685.9,169.3h3.6l6.1-6.5h-5.8L685.9,169.3z"/>
		<path class="st0" d="M101.7,190.9l9.9-13.2l-9.9-11v-3.6H122v4.5h-13.6l9.1,10l-9.9,12.6h14.6v4.5h-20.5V190.9z"/>
		<path class="st0" d="M135.2,195.1c-2.5,0.2-4.9-0.6-6.7-2.3c-1.5-1.7-2.2-3.9-2.1-6.1v-14.6h4.5v13.5c-0.1,1.3,0.4,2.6,1.3,3.6
			c0.8,0.8,1.9,1.3,3.1,1.3c0.9,0,1.7-0.1,2.5-0.4c0.7-0.2,1.2-0.7,1.6-1.3c0.4-0.7,0.7-1.6,0.8-2.4c0.2-1.2,0.2-2.5,0.2-3.8
			c0.1-1.7-0.1-3.4-0.6-5.1c-0.3-1.1-1.1-2-2.1-2.5l3.3-3.2c0.8,0.5,1.5,1.2,2.1,2c0.5,0.7,0.9,1.5,1.2,2.4s0.4,1.9,0.5,2.9
			c0,1.1,0,2.3,0,3.6s0,2.7,0,3.7c0,0.9-0.1,1.7-0.2,2.6c-0.1,0.6-0.3,1.3-0.6,1.8s-0.6,1.1-1.1,1.5c-0.8,1-1.9,1.7-3.2,2.1
			C138.3,194.9,136.8,195.1,135.2,195.1z M132.2,169.3h3.6l6.1-6.5h-5.8L132.2,169.3z"/>
		<path class="st0" d="M158.5,195.1c-0.8,0-1.6-0.1-2.4-0.3c-0.7-0.2-1.3-0.4-1.9-0.7c-0.5-0.2-1-0.6-1.5-0.9
			c-0.4-0.3-0.8-0.7-1.1-1.1c-0.4-0.4-0.8-0.9-1.1-1.5s-0.6-1.1-0.8-1.8c-0.2-0.8-0.4-1.5-0.4-2.3c-0.1-0.9-0.1-1.9-0.1-3.1
			c0-1.2,0-2.3,0.1-3.1s0.2-1.5,0.4-2.3c0.2-0.6,0.5-1.1,0.8-1.7c0.3-0.5,0.7-1,1.1-1.5c0.3-0.4,0.7-0.7,1.1-1
			c0.5-0.4,1-0.7,1.5-0.9c0.6-0.3,1.3-0.5,1.9-0.7c1.6-0.4,3.2-0.4,4.8,0h9v4.3H166l0,0c0.6,0.8,1.1,1.8,1.3,2.8
			c0.3,1.4,0.5,2.8,0.4,4.3c0,1.2,0,2.3-0.1,3.1s-0.2,1.6-0.4,2.3c-0.2,0.6-0.4,1.2-0.8,1.8c-0.3,0.5-0.7,1-1.1,1.5
			c-0.3,0.4-0.7,0.7-1.1,1.1c-0.4,0.4-0.9,0.7-1.5,0.9C161.4,194.9,160,195.2,158.5,195.1L158.5,195.1z M158.5,190.6
			c0.7,0,1.5-0.2,2.1-0.5s1.1-0.7,1.5-1.2c0.2-0.3,0.4-0.6,0.5-0.9c0.2-0.3,0.3-0.6,0.4-1c0.1-0.5,0.2-0.9,0.2-1.4
			c0-0.6,0-1.2,0-2.1c0-0.9,0-1.5,0-2.1c0-0.5-0.1-1-0.2-1.4c-0.1-0.4-0.2-0.7-0.4-1s-0.3-0.6-0.5-0.9c-0.4-0.5-0.9-0.9-1.5-1.2
			c-1.4-0.6-2.9-0.6-4.3,0c-0.6,0.3-1.1,0.7-1.5,1.2c-0.2,0.3-0.4,0.6-0.5,0.9c-0.2,0.3-0.3,0.7-0.4,1c-0.1,0.5-0.2,0.9-0.2,1.4
			c0,0.6,0,1.2,0,2.1c0,0.9,0,1.5,0,2.1c0,0.5,0.1,0.9,0.2,1.4c0.1,0.4,0.2,0.7,0.4,1s0.3,0.6,0.5,0.9c0.4,0.5,0.9,0.9,1.5,1.2
			C157.1,190.5,157.8,190.6,158.5,190.6L158.5,190.6z"/>
		<path class="st0" d="M181.5,194.6c-0.7-0.2-1.3-0.5-1.8-0.9s-1-1-1.2-1.7c-0.3-0.8-0.5-1.7-0.4-2.6v-12.9h-6.9v-4.3h18.1v4.3h-6.7
			V189c0,1,0.6,1.6,1.7,1.6h1.6v4.3h-2C183,194.8,182.3,194.7,181.5,194.6z"/>
		<path class="st0" d="M206.2,181.4c0.1-1.3-0.4-2.6-1.3-3.6c-0.8-0.9-2-1.3-3.2-1.3s-2.4,0.4-3.2,1.3c-0.9,1-1.4,2.3-1.3,3.6v13.5
			h-4.5v-22.7h4.5v2.4l0,0c0.7-0.8,1.6-1.5,2.6-2s2.2-0.7,3.3-0.7c0.9,0,1.8,0.2,2.7,0.5s1.7,0.9,2.4,1.5c0.8,0.7,1.4,1.5,1.8,2.5
			c0.5,1.1,0.7,2.2,0.7,3.4v24.3h-4.5V181.4z"/>
		<path class="st0" d="M216.6,172.2h4.5v13.7c-0.1,1.3,0.4,2.6,1.3,3.5c0.9,0.8,2.1,1.2,3.3,1.1c1.2,0,2.3-0.4,3.2-1.3
			c0.9-1,1.4-2.3,1.3-3.6v-13.5h4.5v22.7h-4.5v-2.3c-0.8,0.9-1.8,1.5-2.8,2c-1,0.4-2,0.6-3.1,0.6s-2.1-0.3-3-0.8v9.7h-4.5
			L216.6,172.2z"/>
		<path class="st0" d="M247.5,195.1c-1.3,0-2.5-0.2-3.6-0.9c-0.9-0.6-1.8-1.3-2.5-2.1c-0.3-0.3-0.6-0.7-0.8-1.2s-0.4-1.1-0.5-1.6
			c-0.1-0.8-0.2-1.6-0.3-2.4c0-0.9,0-2.1,0-3.5s0-2.6,0.1-3.5c0.1-0.8,0.2-1.6,0.3-2.3c0.2-1.7,1.1-3.2,2.5-4.3s3.1-1.6,4.8-1.6
			c0.9,0,1.8,0.1,2.6,0.4c0.7,0.2,1.4,0.5,2,0.9c0.5,0.4,1,0.8,1.4,1.3c0.3,0.4,0.6,0.8,0.9,1.2l0.4-3.5h4.5l-1.2,11.3l1.2,11.3
			h-4.5l-0.4-3.7c-0.3,0.5-0.7,1.1-1,1.5c-0.4,0.5-0.9,0.9-1.4,1.3c-0.6,0.4-1.2,0.7-1.9,0.9C249.3,195,248.4,195.1,247.5,195.1z
			 M248.8,190.6c0.6,0,1.1-0.1,1.6-0.4c0.5-0.3,0.8-0.6,1.1-1c0.3-0.5,0.6-1,0.8-1.5c0.2-0.6,0.4-1.1,0.6-1.8l0.7-2.4l-0.7-2.6
			c-0.1-0.6-0.3-1.1-0.5-1.7c-0.2-0.5-0.5-1-0.8-1.4s-0.7-0.7-1.1-1c-0.5-0.3-1-0.4-1.6-0.4c-0.9,0-1.8,0.2-2.5,0.6
			c-0.6,0.4-1.1,1-1.4,1.6c-0.3,0.7-0.5,1.5-0.5,2.3s0,1.7,0,2.5c0,0.9,0,1.6,0,2.4c0,0.8,0.2,1.6,0.5,2.3s0.8,1.2,1.4,1.7
			C247.1,190.4,248,190.6,248.8,190.6L248.8,190.6z"/>
		<path class="st0" d="M283.9,163.1h4.5l12.1,31.8h-28.7L283.9,163.1z M293.7,190.3l-7.5-20.8l-7.5,20.8H293.7z"/>
		<path class="st0" d="M307,194.6c-0.7-0.2-1.3-0.5-1.8-0.9c-0.5-0.5-1-1-1.2-1.7c-0.3-0.8-0.5-1.7-0.4-2.6v-17.2h4.5V189
			c0,1,0.6,1.6,1.7,1.6h1.6v4.3h-2.1C308.5,194.8,307.8,194.7,307,194.6z"/>
		<path class="st0" d="M322,195.1c-1.3,0-2.5-0.2-3.6-0.9c-0.9-0.6-1.8-1.3-2.5-2.1c-0.3-0.3-0.6-0.7-0.8-1.2
			c-0.2-0.5-0.4-1.1-0.5-1.6c-0.1-0.8-0.2-1.6-0.3-2.4c0-0.9,0-2.1,0-3.5s0-2.6,0.1-3.5c0.1-0.8,0.2-1.6,0.3-2.3
			c0.2-1.7,1.1-3.2,2.5-4.3s3.1-1.6,4.8-1.6c0.9,0,1.8,0.1,2.6,0.4c0.7,0.2,1.4,0.5,2,0.9c0.5,0.4,1,0.8,1.4,1.3
			c0.3,0.4,0.6,0.8,0.9,1.2l0.4-3.5h4.5l-1.2,11.3l1.2,11.3h-4.5l-0.4-3.7c-0.3,0.5-0.7,1.1-1,1.5c-0.4,0.5-0.9,0.9-1.4,1.3
			c-0.6,0.4-1.2,0.7-1.9,0.9C323.7,195,322.8,195.1,322,195.1z M323.3,190.6c0.6,0,1.1-0.1,1.6-0.4c0.5-0.3,0.8-0.6,1.1-1
			c0.3-0.5,0.6-1,0.8-1.5c0.2-0.6,0.4-1.1,0.6-1.8l0.7-2.4l-0.7-2.6c-0.1-0.6-0.3-1.1-0.5-1.7c-0.2-0.5-0.5-1-0.8-1.4
			s-0.7-0.7-1.1-1c-0.5-0.3-1-0.4-1.6-0.4c-0.9,0-1.8,0.2-2.5,0.6c-0.6,0.4-1.1,1-1.4,1.6c-0.3,0.7-0.5,1.5-0.5,2.3s0,1.7,0,2.5
			c0,0.9,0,1.6,0,2.4c0,0.8,0.2,1.6,0.5,2.3s0.8,1.2,1.4,1.7C321.6,190.4,322.4,190.6,323.3,190.6L323.3,190.6z"/>
		<path class="st0" d="M343,187.8l-7.4-15.5h5.2l4.8,11.5l4.7-11.5h5.2l-7.5,15.5l7.8,16.4h-5.3l-5-11.8l-5,11.8h-5.2L343,187.8z"/>
		<path class="st0" d="M366.4,195.1c-2.3,0.1-4.6-0.4-6.7-1.6c-1.6-1.1-2.5-3-2.3-5c0-0.5,0-0.9,0.1-1.4s0.3-1.1,0.6-1.6
			c0.3-0.5,0.8-1,1.3-1.4c0.6-0.5,1.4-0.8,2.1-1c-0.4-0.2-0.9-0.4-1.3-0.6c-0.5-0.3-0.9-0.6-1.3-1s-0.7-0.9-0.9-1.4
			c-0.3-0.6-0.4-1.3-0.4-2c0-1.8,0.7-3.4,2.1-4.5c2-1.3,4.4-2,6.8-1.7c1,0,2,0.1,3,0.3c0.8,0.2,1.6,0.4,2.4,0.7
			c0.7,0.3,1.3,0.6,1.8,1s1,0.9,1.5,1.4l-2.9,3.1c-0.3-0.3-0.6-0.6-1-0.9c-0.4-0.3-0.7-0.5-1.1-0.7c-0.5-0.2-1-0.3-1.6-0.4
			c-0.8-0.1-1.5-0.1-2.3-0.1c-1.1-0.1-2.2,0.1-3.2,0.6c-0.7,0.4-1.1,1.1-1,1.9c0,0.7,0.3,1.4,0.9,1.8c0.9,0.6,1.9,0.8,3,0.7h3.8v4.1
			H366c-0.5,0-1,0-1.5,0c-0.4,0-0.9,0.2-1.3,0.4s-0.7,0.5-0.9,0.8c-0.3,0.4-0.4,0.9-0.4,1.4c0,0.9,0.4,1.7,1.1,2.1
			c1,0.6,2.1,0.9,3.3,0.8c0.7,0,1.4,0,2.1-0.1c0.5-0.1,1-0.2,1.5-0.4s0.9-0.5,1.3-0.8c0.5-0.4,1-0.8,1.4-1.3l3.4,3
			c-0.7,0.8-1.6,1.5-2.5,2.1c-0.8,0.5-1.6,0.9-2.4,1.2s-1.6,0.4-2.4,0.5L366.4,195.1z"/>
		<path class="st0" d="M383.1,162.9h5.8l-6.2,6.5H379L383.1,162.9z M385,194.9h2.1v-4.3h-1.6c-1.1,0-1.7-0.5-1.7-1.6v-16.9h-4.5
			v17.1c0,0.9,0.1,1.8,0.4,2.6c0.3,0.7,0.7,1.2,1.2,1.7c0.5,0.4,1.2,0.8,1.8,0.9C383.5,194.7,384.2,194.8,385,194.9z"/>
		<path class="st0" d="M390.7,183.5c0-1.4,0-2.5,0-3.4c0-0.8,0.1-1.6,0.3-2.3c0.1-0.6,0.4-1.1,0.7-1.7c0.3-0.5,0.7-1,1-1.5
			c0.8-0.9,1.8-1.5,3-2c1.3-0.5,2.6-0.8,3.9-0.8c0.9,0,1.8,0.1,2.7,0.2c0.7,0.1,1.4,0.3,2.1,0.6c0.6,0.2,1.1,0.6,1.5,0.9
			c0.4,0.3,0.8,0.7,1.1,1.2c0.3,0.4,0.5,0.8,0.7,1.2c0.2,0.5,0.4,1,0.5,1.6c0.1,0.8,0.2,1.6,0.3,2.3c0,0.9,0,2.1,0,3.5s0,2.6,0,3.4
			c0,0.8-0.1,1.6-0.3,2.3c-0.1,0.6-0.3,1.1-0.5,1.6c-0.2,0.4-0.5,0.8-0.7,1.2c-0.7,0.9-1.5,1.6-2.5,2.1c-1.1,0.6-2.4,0.8-3.6,0.8
			c-1.1,0-2.2-0.2-3.1-0.7c-1-0.5-1.9-1.2-2.7-2v11.6h-4.5L390.7,183.5z M399.6,190.6c0.9,0.1,1.8-0.2,2.5-0.6
			c0.6-0.4,1-0.9,1.3-1.6c0.3-0.7,0.5-1.5,0.5-2.3c0-0.9,0.1-1.7,0.1-2.6c0-0.9,0-1.8-0.1-2.6s-0.2-1.5-0.5-2.3
			c-0.3-0.7-0.7-1.2-1.3-1.6c-0.8-0.5-1.6-0.7-2.5-0.7c-0.9-0.1-1.7,0.2-2.5,0.6c-0.6,0.4-1.1,1-1.3,1.6c-0.3,0.7-0.5,1.5-0.6,2.3
			c0,0.8-0.1,1.7-0.1,2.6c0,1.1,0.1,2.2,0.2,3.3c0.1,1,0.5,1.9,1.3,2.6c0.3,0.4,0.8,0.6,1.2,0.8C398.5,190.5,399,190.6,399.6,190.6z
			"/>
		<path class="st0" d="M417.3,194.6c-0.7-0.2-1.3-0.5-1.8-0.9s-1-1-1.2-1.7c-0.3-0.8-0.5-1.7-0.4-2.6v-17.2h4.5V189
			c0,1,0.6,1.6,1.7,1.6h1.6v4.3h-2.1C418.8,194.8,418.1,194.7,417.3,194.6z"/>
		<path class="st0" d="M433.5,195.1c-0.8,0-1.6-0.1-2.4-0.3c-0.7-0.2-1.3-0.4-1.9-0.7c-0.5-0.2-1-0.6-1.5-0.9
			c-0.4-0.3-0.8-0.7-1.1-1.1c-0.4-0.4-0.8-0.9-1.1-1.5c-0.3-0.6-0.6-1.1-0.8-1.8c-0.2-0.8-0.4-1.5-0.4-2.3c-0.1-0.9-0.1-1.9-0.1-3.1
			c0-1.2,0-2.3,0.1-3.1s0.2-1.5,0.4-2.3c0.2-0.6,0.4-1.2,0.8-1.7c0.3-0.5,0.7-1,1.1-1.5c0.3-0.4,0.7-0.7,1.1-1
			c0.5-0.4,1-0.7,1.5-0.9c0.6-0.3,1.3-0.5,1.9-0.7c1.6-0.4,3.2-0.4,4.8,0h9v4.3H441l0,0c0.6,0.8,1.1,1.8,1.3,2.8
			c0.3,1.4,0.5,2.8,0.4,4.3c0,1.2,0,2.3-0.1,3.1s-0.2,1.6-0.4,2.3c-0.2,0.6-0.4,1.2-0.8,1.8c-0.3,0.5-0.7,1-1.1,1.5
			c-0.3,0.4-0.7,0.7-1.1,1.1c-0.4,0.4-0.9,0.7-1.5,0.9C436.5,194.8,435,195.2,433.5,195.1L433.5,195.1z M433.5,190.6
			c0.7,0,1.5-0.2,2.1-0.5s1.1-0.7,1.5-1.2c0.2-0.3,0.4-0.6,0.5-0.9c0.2-0.3,0.3-0.7,0.4-1c0.1-0.5,0.2-0.9,0.2-1.4
			c0-0.6,0-1.2,0-2.1c0-0.9,0-1.5,0-2.1c0-0.5-0.1-1-0.2-1.4s-0.2-0.7-0.4-1c-0.2-0.3-0.3-0.6-0.5-0.9c-0.4-0.5-0.9-0.9-1.5-1.2
			c-1.4-0.6-2.9-0.6-4.3,0c-0.6,0.3-1.1,0.7-1.5,1.2c-0.2,0.3-0.4,0.6-0.5,0.9c-0.2,0.3-0.3,0.7-0.4,1c-0.1,0.5-0.2,0.9-0.2,1.4
			c0,0.6,0,1.2,0,2.1c0,0.9,0,1.5,0,2.1c0,0.5,0.1,0.9,0.2,1.4c0.1,0.4,0.2,0.7,0.4,1c0.2,0.3,0.3,0.6,0.5,0.9
			c0.4,0.5,0.9,0.9,1.5,1.2C432.1,190.4,432.8,190.6,433.5,190.6L433.5,190.6z"/>
		<path class="st0" d="M462.1,181.4c0.1-1.3-0.4-2.6-1.3-3.6c-0.8-0.9-2-1.3-3.2-1.3s-2.4,0.4-3.2,1.3c-0.9,1-1.4,2.3-1.3,3.6v13.5
			h-4.6v-22.7h4.5v2.4l0,0c0.7-0.9,1.6-1.5,2.6-2s2.2-0.7,3.3-0.7c0.9,0,1.8,0.2,2.7,0.5c0.9,0.3,1.7,0.9,2.4,1.5
			c0.7,0.7,1.3,1.5,1.8,2.5c0.5,1.1,0.7,2.2,0.7,3.4v24.3H462L462.1,181.4z"/>
		<path class="st0" d="M480.9,198.9h1.7c1.7,0,2.6-0.7,2.6-2c0-0.5-0.2-1-0.6-1.3c-0.6-0.4-1.3-0.6-2-0.5h-1.1
			c-1.4,0-2.8-0.2-4.1-0.6c-1.3-0.4-2.4-1.1-3.4-2c-1-1-1.8-2.2-2.3-3.6c-0.6-1.7-0.9-3.5-0.9-5.3s0.2-3.6,0.9-5.3
			c0.5-1.4,1.3-2.6,2.4-3.6c0.9-0.9,2-1.7,3.3-2.1c1.2-0.4,2.5-0.7,3.8-0.7c0.9,0,1.8,0.1,2.6,0.2c0.8,0.2,1.6,0.5,2.3,0.9
			c0.6,0.3,1.2,0.8,1.7,1.2c0.5,0.5,1,1,1.5,1.6l-3.4,3c-1-1.6-2.8-2.5-4.7-2.4c-1.6-0.1-3.1,0.5-4.3,1.7c-2,3.3-2,7.5,0,10.8
			c1.2,1.2,2.8,1.8,4.4,1.6h0.8c2-0.2,4.1,0.3,5.8,1.4c1.4,1.3,2,3.1,1.8,4.9c0,0.9-0.1,1.7-0.3,2.6c-0.2,0.7-0.6,1.4-1.2,2
			s-1.4,1-2.3,1.3c-1.2,0.3-2.4,0.5-3.6,0.4H481L480.9,198.9z"/>
		<path class="st0" d="M501.5,190.9l9.9-13.2l-9.9-11v-3.6h20.3v4.5h-13.6l9.1,10l-9.9,12.6H522v4.5h-20.5V190.9z"/>
		<path class="st0" d="M535.1,195.1c-2.5,0.2-4.9-0.6-6.7-2.3c-1.5-1.7-2.2-3.9-2.1-6.1v-14.6h4.5v13.5c-0.1,1.3,0.4,2.6,1.3,3.6
			c0.8,0.8,1.9,1.3,3.1,1.3c0.9,0,1.7-0.1,2.5-0.4c0.7-0.2,1.2-0.7,1.6-1.3c0.4-0.7,0.7-1.6,0.8-2.4c0.2-1.2,0.2-2.5,0.2-3.8
			c0.1-1.7-0.1-3.4-0.6-5.1c-0.3-1.1-1.1-2-2.1-2.5l3.3-3.2c0.8,0.5,1.5,1.2,2.1,2c0.5,0.7,0.9,1.6,1.2,2.4c0.3,0.9,0.4,1.9,0.5,2.9
			c0,1.1,0,2.3,0,3.6s0,2.7,0,3.7c0,0.9-0.1,1.7-0.2,2.6c-0.1,0.6-0.3,1.3-0.6,1.8s-0.6,1.1-1.1,1.5c-0.8,1-1.9,1.7-3.2,2.1
			C538.2,195,536.7,195.2,535.1,195.1z"/>
		<path class="st0" d="M550.2,172.2h4.5v13.7c-0.1,1.3,0.4,2.6,1.3,3.5c0.9,0.8,2.1,1.2,3.3,1.1c1.2,0,2.3-0.4,3.2-1.3
			c0.9-1,1.4-2.3,1.3-3.6v-13.5h4.5v22.7h-4.5v-2.3c-0.8,0.9-1.8,1.5-2.8,2c-1,0.4-2,0.6-3.1,0.6s-2.1-0.3-3-0.8v9.7h-4.5v-31.8
			H550.2z"/>
		<path class="st0" d="M574.1,172.2h4.5v13.7c-0.1,1.3,0.4,2.6,1.3,3.5c0.9,0.8,2.1,1.2,3.3,1.1c1.2,0,2.3-0.4,3.2-1.3
			c0.9-1,1.4-2.3,1.3-3.6v-13.5h4.5v22.7h-4.5v-2.3c-0.8,0.9-1.8,1.5-2.8,2c-1,0.4-2,0.6-3.1,0.6s-2.1-0.3-3-0.8v9.7h-4.5
			L574.1,172.2z"/>
		<path class="st0" d="M606,195.1c-2.3,0.1-4.6-0.4-6.7-1.6c-1.6-1.1-2.5-3-2.3-5c0-0.5,0-0.9,0.1-1.4s0.3-1.1,0.6-1.6
			s0.8-1,1.3-1.4c0.6-0.5,1.4-0.8,2.1-1c-0.4-0.2-0.9-0.4-1.3-0.6c-0.5-0.3-0.9-0.6-1.3-1c-0.4-0.4-0.7-0.9-0.9-1.4
			c-0.3-0.6-0.4-1.3-0.4-2c0-1.8,0.8-3.4,2.1-4.5c2-1.3,4.4-2,6.8-1.7c1,0,2,0.1,3,0.3c0.8,0.1,1.6,0.4,2.4,0.7
			c0.7,0.3,1.3,0.6,1.8,1s1,0.9,1.5,1.4l-2.9,3.1c-0.3-0.3-0.6-0.6-1-0.9c-0.4-0.3-0.7-0.5-1.1-0.7c-0.5-0.2-1-0.3-1.6-0.4
			c-0.8-0.1-1.5-0.1-2.3-0.1c-1.1-0.1-2.2,0.1-3.2,0.6c-0.7,0.4-1.1,1.1-1,1.9c0,0.7,0.3,1.4,0.9,1.8c0.9,0.6,1.9,0.8,3,0.7h3.8v4.1
			h-3.8c-0.5,0-1,0-1.5,0c-0.4,0-0.9,0.2-1.3,0.4c-0.4,0.2-0.7,0.5-0.9,0.8c-0.3,0.4-0.4,0.9-0.4,1.4c0,0.9,0.4,1.7,1.1,2.1
			c1,0.6,2.1,0.9,3.3,0.8c0.7,0,1.4,0,2.1-0.1c0.5-0.1,1-0.2,1.5-0.4s0.9-0.5,1.3-0.8c0.5-0.4,1-0.8,1.4-1.3l3.4,3
			c-0.7,0.8-1.6,1.5-2.5,2.1c-0.8,0.5-1.6,0.9-2.4,1.2c-0.8,0.3-1.6,0.4-2.4,0.5L606,195.1z"/>
		<path class="st0" d="M626.7,194.6c-0.7-0.2-1.3-0.5-1.8-0.9c-0.5-0.5-1-1-1.2-1.7c-0.3-0.8-0.5-1.7-0.4-2.6v-12.9h-6.9v-4.3h18.2
			v4.3h-6.7V189c0,1,0.6,1.6,1.7,1.6h1.6v4.3h-2C628.3,194.8,627.5,194.7,626.7,194.6z"/>
		<path class="st0" d="M646.1,195.1c-2.6,0-5.1-1-6.9-2.9c-0.9-0.9-1.5-2-1.9-3.3c-0.5-1.8-0.7-3.6-0.6-5.4
			c-0.1-1.8,0.1-3.7,0.6-5.5c0.4-1.2,1-2.3,1.9-3.2c0.7-0.8,1.6-1.5,2.6-2c1.3-0.6,2.8-0.9,4.3-0.9s2.9,0.3,4.3,0.9
			c1,0.5,1.8,1.2,2.5,2c0.9,0.9,1.6,2,1.9,3.2c0.4,1.8,0.6,3.6,0.6,5.5c0.1,1.8-0.1,3.7-0.6,5.4c-0.4,1.2-1,2.3-1.9,3.3l-0.5,0.5
			c-0.2,0.2-0.4,0.3-0.6,0.5c-0.4,0.4-0.9,0.7-1.5,0.9C649,194.8,647.6,195.1,646.1,195.1z M646.1,190.6c0.7,0,1.5-0.2,2.1-0.5
			c0.6-0.2,1.1-0.6,1.5-1.1c0.5-0.6,0.8-1.2,0.9-2c0-0.4,0.1-0.8,0.1-1.4c0-0.6,0-1.2,0-2s0-1.5,0-2.1s0-1.1-0.1-1.5
			c-0.1-0.7-0.4-1.3-0.9-1.9c-0.4-0.5-0.9-0.9-1.5-1.2c-1.4-0.6-2.9-0.6-4.3,0c-0.6,0.3-1.1,0.7-1.5,1.2c-0.4,0.6-0.7,1.2-0.9,1.9
			c-0.2,1.2-0.3,2.3-0.3,3.5s0,2.3,0.3,3.4c0.2,0.7,0.4,1.4,0.9,2c0.4,0.5,1,0.8,1.5,1.1C644.7,190.4,645.4,190.6,646.1,190.6
			L646.1,190.6z"/>
		<path class="st0" d="M664.8,187.8l-7.4-15.5h5.2l4.8,11.5l4.7-11.5h5.2l-7.5,15.5l7.8,16.4h-5.3l-5-11.8l-5.1,11.8H657
			L664.8,187.8z"/>
		<path class="st0" d="M693.8,181.4c0.1-1.3-0.4-2.6-1.3-3.6c-0.8-0.9-2-1.3-3.2-1.3s-2.4,0.4-3.2,1.3c-0.9,1-1.4,2.3-1.3,3.6v13.5
			h-4.5v-22.7h4.5v2.4l0,0c0.7-0.9,1.6-1.5,2.6-2s2.2-0.7,3.3-0.7c0.9,0,1.8,0.2,2.7,0.5s1.7,0.9,2.4,1.5c0.7,0.7,1.3,1.5,1.8,2.5
			c0.5,1.1,0.7,2.2,0.7,3.4v24.3h-4.5V181.4z M685.9,169.3h3.6l6.1-6.5h-5.8L685.9,169.3z"/>
	</g>
</g>
</svg>
