<?xml version="1.0" encoding="utf-8"?>
<!-- Generator: Adobe Illustrator 21.0.0, SVG Export Plug-In . SVG Version: 6.00 Build 0)  -->
<svg version="1.1" id="レイヤー_1" xmlns="http://www.w3.org/2000/svg" xmlns:xlink="http://www.w3.org/1999/xlink" x="0px"
	 y="0px" viewBox="0 0 800 145.4" style="enable-background:new 0 0 800 145.4;" xml:space="preserve">
<style type="text/css">
	.st0{fill:url(#SVGID_1_);}
	.st1{fill:url(#SVGID_2_);}
	.st2{fill:url(#SVGID_3_);}
	.st3{fill:url(#SVGID_4_);}
	.st4{fill:url(#_複合パス__1_);}
	.st5{fill:url(#SVGID_5_);}
	.st6{fill:url(#SVGID_6_);}
	.st7{fill:none;}
</style>
<title>ostraca_maintitle</title>
<g id="レイヤー_2">
	<g id="レイヤー_1-2">
		
			<linearGradient id="SVGID_1_" gradientUnits="userSpaceOnUse" x1="15.0927" y1="563.5655" x2="85.0101" y2="260.7887" gradientTransform="matrix(1 0 0 -1 18.17 565.8045)">
			<stop  offset="0" style="stop-color:#00716C"/>
			<stop  offset="0.21" style="stop-color:#07876A"/>
			<stop  offset="0.49" style="stop-color:#0E9C68"/>
			<stop  offset="0.76" style="stop-color:#12AA67"/>
			<stop  offset="1" style="stop-color:#13AE67"/>
		</linearGradient>
		<path class="st0" d="M0,72.7c0-16.7,0.5-27.8,1.4-33.4c0.7-4.8,2.3-9.5,4.7-13.8c3.8-7.1,9.4-13.2,16.2-17.6
			c8-5.4,17.6-8.2,27.3-7.9c18.2-0.4,35,9.6,43.3,25.7c2.6,4.1,4.2,8.8,4.8,13.6c1.1,11.1,1.5,22.2,1.2,33.4
			c0.2,11.1-0.2,22.1-1.2,33.2c-0.6,4.9-2.2,9.6-4.8,13.8c-3.7,7.1-9.1,13.1-15.8,17.5c-8.2,5.5-17.8,8.4-27.6,8.2
			c-9.7,0.1-19.2-2.8-27.3-8.2c-6.8-4.4-12.3-10.4-16.2-17.5c-1-2.2-1.9-4.2-2.7-6.2c-0.9-2.5-1.5-5-1.9-7.7
			C0.4,100.1,0,89.1,0,72.7z M21,72.7c0,14.1,0.5,23.6,1.5,28.6c0.6,4.5,2.5,8.6,5.4,12.1c2.3,3,5.3,5.5,8.8,7.2
			c3.9,2.2,8.3,3.4,12.8,3.3c4.6,0.1,9.1-1,13-3.3c3.3-1.7,6.2-4.2,8.4-7.2c2.9-3.5,4.9-7.6,5.7-12.1c0.9-5,1.4-14.5,1.4-28.6
			c0.3-9.6-0.2-19.2-1.4-28.8c-0.8-4.4-2.7-8.5-5.6-11.9c-2.2-3.1-5.1-5.6-8.4-7.4c-4.1-2-8.5-3-13-3c-4.4,0-8.8,1-12.8,3
			c-3.4,1.8-6.4,4.3-8.8,7.4c-2.9,3.4-4.7,7.5-5.4,11.9C21.5,49,21,58.6,21,72.7z"/>
		
			<linearGradient id="SVGID_2_" gradientUnits="userSpaceOnUse" x1="124.1591" y1="588.648" x2="194.0764" y2="285.8712" gradientTransform="matrix(1 0 0 -1 18.17 565.8045)">
			<stop  offset="0" style="stop-color:#00716C"/>
			<stop  offset="0.21" style="stop-color:#07876A"/>
			<stop  offset="0.49" style="stop-color:#0E9C68"/>
			<stop  offset="0.76" style="stop-color:#12AA67"/>
			<stop  offset="1" style="stop-color:#13AE67"/>
		</linearGradient>
		<path class="st1" d="M129,109.6c11,9.4,25,14.4,39.4,14.3c18-0.3,27.1-6.9,27.4-19.9c0.1-10.7-5.9-17.1-18-19.2
			c-5.6-0.8-11.7-1.7-18.3-2.7c-11.9-2-21-6.6-27.2-13.6c-6.4-7.3-9.9-16.8-9.6-26.5c0-12.5,4-22.6,12.1-30.3
			C142.4,4,153.4,0.1,167.7,0c16.2,0.1,31.9,5.3,44.9,14.9l-11.7,17.8c-10.1-7-22.1-10.8-34.3-11c-5.8-0.2-11.5,1.6-16.2,5
			c-4.5,3.5-6.8,8.6-6.9,15.4c0,4.2,1.7,8.2,4.7,11.2c3.1,3.4,8.1,5.8,14.9,7.1c3.8,0.7,9,1.4,15.6,2.3c13,1.8,22.6,6.6,28.8,14.4
			c6.1,7.5,9.4,17,9.2,26.7c-0.7,27.4-16.9,41.2-48.6,41.6c-19.5,0.4-38.3-6.6-52.9-19.5L129,109.6z"/>
		
			<linearGradient id="SVGID_3_" gradientUnits="userSpaceOnUse" x1="244.1963" y1="616.3671" x2="314.1137" y2="313.5903" gradientTransform="matrix(1 0 0 -1 18.17 565.8045)">
			<stop  offset="0" style="stop-color:#00716C"/>
			<stop  offset="0.21" style="stop-color:#07876A"/>
			<stop  offset="0.49" style="stop-color:#0E9C68"/>
			<stop  offset="0.76" style="stop-color:#12AA67"/>
			<stop  offset="1" style="stop-color:#13AE67"/>
		</linearGradient>
		<path class="st2" d="M266,20.4h-38V1.3H325v19.1h-38v123.8h-21L266,20.4z"/>
		
			<linearGradient id="SVGID_4_" gradientUnits="userSpaceOnUse" x1="335.4449" y1="637.4383" x2="405.3623" y2="334.6615" gradientTransform="matrix(1 0 0 -1 18.17 565.8045)">
			<stop  offset="0" style="stop-color:#00716C"/>
			<stop  offset="0.21" style="stop-color:#07876A"/>
			<stop  offset="0.49" style="stop-color:#0E9C68"/>
			<stop  offset="0.76" style="stop-color:#12AA67"/>
			<stop  offset="1" style="stop-color:#13AE67"/>
		</linearGradient>
		<path class="st3" d="M343,1.2h54.1c11.6,0,21,3.1,28.3,9.4c8.8,7.1,13.3,17.3,13.7,30.5c-0.2,19.4-9.1,32.6-26.7,39.7l31.9,63.4
			h-24.8l-28.7-61.1h-26.9v61.1h-21V1.2z M363.9,63.8h31.9c7.9-0.1,13.8-2.5,17.7-7.1c3.9-4.3,6-9.9,5.8-15.7
			c-0.2-7.5-2.5-12.8-7-16.1c-3.6-2.9-8.7-4.4-15.4-4.4h-33V63.8z"/>
		
			<linearGradient id="_複合パス__1_" gradientUnits="userSpaceOnUse" x1="436.8144" y1="660.8466" x2="506.7318" y2="358.0698" gradientTransform="matrix(1 0 0 -1 18.17 565.8045)">
			<stop  offset="0" style="stop-color:#00716C"/>
			<stop  offset="0.21" style="stop-color:#07876A"/>
			<stop  offset="0.49" style="stop-color:#0E9C68"/>
			<stop  offset="0.76" style="stop-color:#12AA67"/>
			<stop  offset="1" style="stop-color:#13AE67"/>
		</linearGradient>
		<path id="_複合パス_" class="st4" d="M536.5,112.2h-52.5l-10.6,31.9h-22.2L501.4,1.2H519l50.4,143h-22.2L536.5,112.2z
			 M530.5,93.1l-20-62.6h-0.4l-20,62.6H530.5z"/>
		
			<linearGradient id="SVGID_5_" gradientUnits="userSpaceOnUse" x1="565.3939" y1="690.5382" x2="635.3113" y2="387.7614" gradientTransform="matrix(1 0 0 -1 18.17 565.8045)">
			<stop  offset="0" style="stop-color:#00716C"/>
			<stop  offset="0.21" style="stop-color:#07876A"/>
			<stop  offset="0.49" style="stop-color:#0E9C68"/>
			<stop  offset="0.76" style="stop-color:#12AA67"/>
			<stop  offset="1" style="stop-color:#13AE67"/>
		</linearGradient>
		<path class="st5" d="M677.8,104.2c-3,13.3-8.8,23.4-17.4,30.5c-8.9,7.1-19.9,10.9-31.3,10.6c-18-0.1-34.7-9.9-43.4-25.7
			c-1-2.2-1.9-4.2-2.8-6.2c-0.9-2.5-1.5-5-1.9-7.7c-0.9-5.8-1.4-16.8-1.4-33.2c0-16.6,0.5-27.7,1.4-33.4c0.7-4.8,2.3-9.4,4.7-13.6
			c3.8-7.1,9.4-13.2,16.2-17.7c8-5.5,17.6-8.3,27.3-8c13.4,0.1,24.3,4.2,32.7,12.2c8.4,8.1,14,18.6,16,30.1h-22.3
			c-1.7-5.7-4.9-10.8-9.3-14.7c-4.8-3.9-10.9-6-17.1-6c-4.4,0-8.8,1-12.8,3c-3.4,1.8-6.4,4.3-8.8,7.4c-2.9,3.4-4.7,7.5-5.4,11.9
			c-1,5.1-1.5,14.7-1.5,28.8s0.5,23.6,1.5,28.6c0.6,4.5,2.5,8.6,5.4,12.1c2.3,3,5.3,5.5,8.8,7.2c3.9,2.2,8.3,3.4,12.8,3.3
			c11.8,0,20.6-6.5,26.5-19.6L677.8,104.2z"/>
		
			<linearGradient id="SVGID_6_" gradientUnits="userSpaceOnUse" x1="655.7663" y1="711.407" x2="725.6837" y2="408.6302" gradientTransform="matrix(1 0 0 -1 18.17 565.8045)">
			<stop  offset="0" style="stop-color:#00716C"/>
			<stop  offset="0.21" style="stop-color:#07876A"/>
			<stop  offset="0.49" style="stop-color:#0E9C68"/>
			<stop  offset="0.76" style="stop-color:#12AA67"/>
			<stop  offset="1" style="stop-color:#13AE67"/>
		</linearGradient>
		<path class="st6" d="M767.1,112.2h-52.5l-10.6,31.9h-22.2L732.1,1.2h17.6l50.4,143h-22.2L767.1,112.2z M761.1,93.1l-20-62.6h-0.4
			l-20,62.5L761.1,93.1z"/>
		<path id="_複合パス_2" class="st7" d="M536.5,112.2h-52.5l-10.6,31.9h-22.2L501.4,1.2H519l50.4,143h-22.2L536.5,112.2z
			 M530.5,93.1l-20-62.6h-0.4l-20,62.6H530.5z"/>
	</g>
</g>
</svg>
